<?xml version="1.0" standalone="no"?>
<!DOCTYPE svg PUBLIC "-//W3C//DTD SVG 1.1//EN" "http://www.w3.org/Graphics/SVG/1.1/DTD/svg11.dtd" >
<svg xmlns="http://www.w3.org/2000/svg">
<metadata>Generated by IcoMoon</metadata>
<defs>
<font id="icomoon" horiz-adv-x="1024">
<font-face units-per-em="1024" ascent="960" descent="-64" />
<missing-glyph horiz-adv-x="1024" />
<glyph unicode="&#x20;" horiz-adv-x="512" d="" />
<glyph unicode="&#xe120;" glyph-name="menu" d="M128 725.334h768q17.667 0 30.167-12.5t12.5-30.167-12.5-30.167-30.167-12.5h-768q-17.667 0-30.167 12.5t-12.5 30.167 12.5 30.167 30.167 12.5zM128 213.334h768q17.667 0 30.167-12.5t12.5-30.167-12.5-30.167-30.167-12.5h-768q-17.667 0-30.167 12.5t-12.5 30.167 12.5 30.167 30.167 12.5zM128 469.334h768q17.667 0 30.167-12.5t12.5-30.167-12.5-30.167-30.167-12.5h-768q-17.667 0-30.167 12.5t-12.5 30.167 12.5 30.167 30.167 12.5z" />
<glyph unicode="&#xe408;" glyph-name="navigate_before" d="M658.643 662.71l-196.192-196.192 196.192-196.192-60.059-60.059-256.25 256.25 256.25 256.25z" />
<glyph unicode="&#xe409;" glyph-name="navigate_next" d="M426.416 722.768l256.25-256.25-256.25-256.25-60.059 60.059 196.192 196.192-196.192 196.192z" />
<glyph unicode="&#xe5ce;" glyph-name="expand_less" d="M512.5 636.684l256.25-256.25-60.059-60.059-196.192 196.192-196.192-196.192-60.059 60.059z" />
<glyph unicode="&#xe5cf;" glyph-name="expand_more" d="M708.692 612.661l60.059-60.059-256.25-256.25-256.25 256.25 60.059 60.059 196.192-196.192z" />
<glyph unicode="&#xe900;" glyph-name="697822" d="M516.096 899.657c-254.976 0-460.8-205.824-460.8-460.8s205.824-460.8 460.8-460.8c254.976 0 460.8 205.824 460.8 460.8s-206.848 460.8-460.8 460.8zM791.552 123.465c-1.024 2.048-2.048 4.096-3.072 6.144-24.576 47.104-66.56 81.92-117.76 96.256l-59.392 17.408c-20.48 6.144-30.72 27.648-24.576 48.128 1.024 4.096 4.096 8.192 6.144 11.264l43.008 48.128c28.672 31.744 41.984 74.752 36.864 116.736l-7.168 58.368c-5.12 44.032-29.696 83.968-67.584 108.544h-1.024c-50.176 31.744-114.688 31.744-164.864-2.048v0c-34.816-23.552-57.344-59.392-63.488-100.352l-9.216-61.44c-7.168-44.032 6.144-89.088 35.84-122.88l40.96-45.056c3.072-3.072 5.12-7.168 6.144-11.264 7.168-19.456-4.096-41.984-24.576-48.128l-59.392-17.408c-50.176-15.36-93.184-50.176-117.76-96.256-1.024-2.048-2.048-4.096-3.072-6.144-88.064 76.8-143.36 190.464-143.36 315.392 0 231.424 188.416 419.84 419.84 419.84s419.84-188.416 419.84-419.84c2.048-125.952-54.272-238.592-142.336-315.392z" />
<glyph unicode="&#xe901;" glyph-name="306026" d="M820.224 894.537h-616.448c-83.968 0-152.576-68.608-152.576-152.576v-617.472c0-83.968 68.608-152.576 152.576-152.576h617.472c83.968 0 152.576 68.608 152.576 152.576v617.472c-1.024 83.968-69.632 152.576-153.6 152.576zM871.424 741.961v-80.896c0-25.6-20.48-46.080-46.080-46.080h-84.992c-25.6 0-46.080 20.48-46.080 46.080v84.992c0 25.6 20.48 46.080 46.080 46.080h84.992c25.6 0 46.080-20.48 46.080-46.080v-4.096zM687.104 433.737c0-97.28-78.848-175.104-175.104-175.104-97.28 0-175.104 78.848-175.104 175.104s78.848 175.104 175.104 175.104c96.256 0 175.104-77.824 175.104-175.104zM820.224 74.313h-616.448c-27.648 0-51.2 22.528-51.2 51.2v402.432h98.304c-10.24-29.696-16.384-60.416-16.384-94.208 0-152.576 123.904-276.48 277.504-276.48 152.576 0 276.48 123.904 276.48 276.48 0 32.768-6.144 64.512-16.384 94.208h98.304v-402.432c1.024-28.672-21.504-51.2-50.176-51.2z" />
<glyph unicode="&#xe902;" glyph-name="chevron-thin-down" d="M891.802 660.019c13.926 13.722 36.301 13.722 50.125 0s13.875-35.891 0-49.613l-404.89-400.896c-13.824-13.722-36.198-13.722-50.125 0l-404.89 400.896c-13.824 13.722-13.824 35.891 0 49.613 13.875 13.722 36.301 13.722 50.125 0l379.853-365.619 379.802 365.619z" />
<glyph unicode="&#xe903;" glyph-name="lock" d="M480.939 257.372v0 0c-18.679 6.601-32.062 24.417-32.062 45.357 0 26.562 21.532 48.094 48.094 48.094s48.094-21.532 48.094-48.094c0-20.94-13.383-38.755-32.062-45.357v-83.181c0-8.436-7.177-15.742-16.032-15.742-8.594 0-16.032 7.049-16.032 15.742v83.181zM448.876 238.599v-64.067c0-26.591 21.348-48.148 48.094-48.148 26.562 0 48.094 21.52 48.094 48.148v64.067c19.469 14.623 32.062 37.907 32.062 64.132 0 44.269-35.887 80.156-80.156 80.156s-80.156-35.887-80.156-80.156c0-26.225 12.593-49.507 32.062-64.132v0 0zM256.5 511.137v112.245c0 132.821 107.662 240.446 240.47 240.446 132.537 0 240.47-107.651 240.47-240.446v-112.245c53.197-0.152 96.188-43.294 96.188-96.491v-320.018c0-53.635-43.191-96.491-96.469-96.491h-480.376c-53.326 0-96.469 43.2-96.469 96.491v320.018c0 53.541 43.039 96.34 96.188 96.491v0 0zM288.564 511.137h32.062v111.928c0 97.715 78.952 176.634 176.344 176.634 97.194 0 176.344-79.082 176.344-176.634v-111.928h32.062v112.43c0 114.983-93.541 208.196-208.407 208.196-115.099 0-208.407-93.243-208.407-208.196v-112.43zM352.688 511.137h288.564v112.192c0 79.7-64.759 144.309-144.282 144.309-79.685 0-144.282-64.422-144.282-144.309v-112.192zM256.418 479.073c-35.371 0-64.043-28.762-64.043-64.313v-320.25c0-35.52 28.566-64.313 64.043-64.313h481.104c35.371 0 64.043 28.762 64.043 64.313v320.25c0 35.52-28.566 64.313-64.043 64.313h-481.104z" />
<glyph unicode="&#xe904;" glyph-name="chevron-thin-right" d="M678.4 460.8l-365.619 379.904c-13.722 13.824-13.722 36.198 0 50.125 13.722 13.824 35.891 13.824 49.613 0l400.896-404.89c13.722-13.875 13.722-36.301 0-50.125l-400.896-404.89c-13.722-13.875-35.891-13.824-49.613 0-13.722 13.773-13.722 36.198 0 50.125l365.619 379.75z" />
<glyph unicode="&#xe905;" glyph-name="add-user" d="M818.637-6.605c0.563 109.005-111.923 173.517-221.030 220.518-108.698 46.797-143.411 86.221-143.411 170.701 0 50.637 33.178 34.15 47.718 127.027 6.144 38.502 35.43 0.614 41.062 88.525 0 35.021-16.026 43.725-16.026 43.725s8.141 51.866 11.315 91.802c3.277 41.83-20.378 131.072-117.811 158.464-16.998 17.459-28.518 45.158 23.91 72.909-114.688 5.325-141.363-54.682-202.445-98.816-51.968-38.707-65.997-99.994-63.488-132.608 3.328-39.936 11.418-91.802 11.418-91.802s-16.077-8.704-16.077-43.725c5.632-87.962 35.021-50.022 41.114-88.525 14.541-92.877 47.77-76.39 47.77-127.027 0-84.48-10.854-113.152-119.603-159.949-109.107-46.95-143.053-122.214-142.49-231.219 0.154-32.614-0.563-44.595-0.563-44.595h819.2c0 0-0.717 11.981-0.563 44.595zM870.4 460.8v153.6h-102.4v-153.6h-153.6v-102.4h153.6v-153.6h102.4v153.6h153.6v102.4h-153.6z" />
<glyph unicode="&#xe906;" glyph-name="login" d="M716.8 460.8l-307.2 256v-153.6h-358.4v-204.8h358.4v-153.6l307.2 256zM870.4 102.4h-409.6v-102.4h409.6c56.32 0 102.4 46.080 102.4 102.4v716.8c0 56.32-46.080 102.4-102.4 102.4h-409.6v-102.4h409.6v-716.8z" />
<glyph unicode="&#xe907;" glyph-name="slice9" d="M872.229 145.554c13.531-13.531 21.943-32.256 21.943-52.882 0-41.253-33.573-74.825-74.825-74.825-20.699 0-39.351 8.411-52.955 21.943l-219.282 219.355c-44.544-26.331-96.256-41.838-151.918-41.838-165.303 0-299.301 134.071-299.301 299.374 0 165.23 133.998 299.301 299.301 299.301s299.301-134.071 299.301-299.301c0-55.515-15.287-107.301-41.765-151.918l219.502-219.209zM395.191 741.303c-123.977 0-224.475-100.498-224.475-224.475 0-124.050 100.498-224.475 224.475-224.475 124.050 0 224.475 100.425 224.475 224.475 0.146 123.977-100.425 224.475-224.475 224.475z" />
<glyph unicode="&#xe908;" glyph-name="slice8" d="M840.265 297.179c17.042 1.097 31.378 11.63 38.034 26.405l135.022 300.032h-0.073c2.56 5.632 4.023 11.849 4.023 18.432 0 24.869-20.114 45.056-44.983 45.056h-666.331l-26.185 74.825-0.146-0.073c-6.144 17.554-22.674 30.208-42.35 30.208h-134.949c-24.869 0-45.056-20.114-45.056-44.983s20.187-44.983 45.056-44.983h103.058l173.202-495.031h-81.262c-49.737 0-90.039-40.302-90.039-89.966 0-49.737 40.302-90.039 90.039-90.039 49.664 0 89.966 40.302 89.966 90.039h419.986c0-49.737 40.302-90.039 90.039-90.039 49.664 0 89.966 40.302 89.966 90.039 0 49.664-40.302 89.966-89.966 89.966h-423.351l-22.455 64.219 388.754 25.893zM420.645 359.351l-83.163 237.714h565.175l-95.305-211.895-386.706-25.819z" />
<glyph unicode="&#xe909;" glyph-name="slice6" d="M514.853 897.097c-265.143 0-480.037-214.967-480.037-480.037s214.894-479.963 480.037-479.963c265.070 0 479.963 214.894 479.963 479.963s-214.894 480.037-479.963 480.037zM803.621 155.648c-56.466 27.355-35.694 5.925-109.641 36.352-75.63 31.086-93.55 41.253-93.55 41.253l-0.658 71.314c0 0 28.379 21.358 37.157 88.722 17.701-5.047 23.698 20.626 24.649 37.010 1.024 15.799 10.459 65.17-11.191 60.782 4.462 32.914 7.899 62.757 6.363 78.482-5.413 55.369-43.959 113.152-141.312 117.394-82.798-4.242-136.485-62.025-141.897-117.394-1.609-15.799 1.609-45.568 5.998-78.555-21.577 4.462-12.288-44.983-11.337-60.782 1.024-16.384 6.875-42.203 24.576-37.083 8.85-67.438 37.157-88.942 37.157-88.942l-0.731-71.607c0 0-17.92-10.898-93.477-41.984-73.947-30.354-53.175-7.68-109.714-34.962-62.683 69.193-101.157 160.695-101.157 261.413 0 215.406 174.592 389.998 389.998 389.998 215.333 0 389.998-174.592 389.998-389.998 0-100.718-38.546-192.219-101.23-261.413z" />
<glyph unicode="&#xe90a;" glyph-name="v-i-s-a" horiz-adv-x="3264" d="M3047.586 933.504h-204.76c-63.604 0-111.25-17.382-138.872-81.264l-393.925-895.463h278.332c0 0 45.608 120.4 56.007 146.86 30.258 0 301.004-0.685 339.623-0.685 7.675-34.167 31.964-146.175 31.964-146.175h246.113l-214.483 976.728zM2720.578 303.332c21.995 56.175 105.536 273.254 105.536 273.254-1.284-2.655 21.652 56.518 35.286 93.341l17.996-84.349c0 0 50.636-233.092 61.291-282.246h-220.109zM2328.614 276.529c-1.96-203.036-182.774-334.139-461.528-334.139-118.837 1.285-233.41 24.748-295.642 52.15l37.257 218.792 34.267-15.757c87.295-36.479 143.557-51.122 249.77-51.122 76.297 0 157.878 30.056 158.476 95.651 0.343 42.817-34.267 73.216-137.5 121.085-100.508 46.841-233.744 125.109-232.048 265.548 1.284 190.019 186.097 322.489 448.148 322.489 102.635 0 184.813-21.061 237.498-41.1l-35.973-211.77-24.044 11.389c-48.588 19.695-111.495 38.792-198.447 37.421-103.576 0-151.83-43.501-151.83-84.262-0.343-45.471 56.262-75.956 148.84-121.085 153.192-69.619 224.118-154.224 222.756-265.291zM0 923.144l3.239 19.694h411.317c55.326-1.969 99.91-19.694 115.596-79.209l89.253-431.932c-87.974 225.814-299.387 413.863-619.405 491.447zM1199.084 933.504l-417.538-975.443-280.719-0.343-237.413 814.882c170.836-109.696 316.011-283.616 367.245-405.13l27.705-100.618 259.748 666.651h280.973zM1306.325 934.528h265.119l-165.886-977.409h-265.041l165.807 977.409z" />
<glyph unicode="&#xe90b;" glyph-name="m-a-s-t-e-r" horiz-adv-x="1600" d="M427.253 515.092c-29.849 0-52.767-9.482-52.767-9.482l-6.366-36.919c0 0 18.921 7.61 47.533 7.61 16.304 0 28.186-1.772 28.186-14.798 0-7.846-1.38-10.832-1.38-10.832s-12.872 1.074-18.778 1.074c-37.878 0-77.523-15.731-77.523-63.483 0-37.712 25.959-46.256 42.157-46.256 30.804 0 44.208 19.657 44.88 19.657l-1.521-16.394h38.547l17.119 118.006c-0.143 50.186-44.596 51.817-60.087 51.817zM405.715 377.946c-13.545 0-17.012 10.175-17.012 16.148 0 11.811 6.508 25.911 38.408 25.911 7.462 0 8.311-0.833 9.549-1.079 0.813-7.188-4.562-40.98-30.945-40.98zM542.196 461.503c0-21.424 51.951-10.832 51.951-64.141 0-56.993-56.23-54.558-66.029-54.558-36.642 0-47.954 5.035-48.91 5.311l5.797 37.577c0 0.246 18.357-6.666 38.835-6.666 11.742 0 26.914 1.215 26.914 14.933 0 20.766-54.569 15.731-54.569 64.838 0 43.41 32.746 56.014 65.073 56.014 24.864 0 40.21-3.368 40.21-3.368l-5.516-37.853c0 0-23.627 2.013-29.71 2.013-15.632-0.1-24.046-3.368-24.046-14.1zM645.817 396.248c-0.992-5.833 0.675-13.819 15.877-13.819 3.859 0 8.276 1.355 11.318 1.355l-5.516-36.503c-4.422-1.215-16.869-5.557-32.746-5.692-20.304-0.141-34.801 11.113-34.801 36.357 0 17.087 24.859 157.079 25.815 158.052h43.681l-4.422-24.973h21.679l-5.516-40.423h-23.095l-12.273-74.355zM814.196 414.032c0 0 5.838 27.814 5.838 39.068 0 28.235-14.395 62.685-62.318 62.685-43.921 0-76.391-46.537-76.391-99.047 0-60.496 40.741-74.872 75.404-74.872 32.077 0 46.15 6.912 46.15 6.912l7.75 41.397c0 0-24.44-10.456-46.441-10.456-46.824 0-38.656 34.314-38.656 34.314h88.665zM757.858 477.375c24.721 0 20.161-27.261 20.161-29.415h-48.491c0 2.846 4.565 29.415 28.33 29.415zM361.896 549.296l-34.518-204.303h-44.632l24.862 153.951-56.091-153.951h-30.097l-3.891 153.951-26.666-153.951h-42.121l34.942 204.303h63.695l2.369-125.37 42.935 125.37h69.212zM914.249 576.146h-226.735c2.229 4.201 10.116 21.007 22.104 43.128h186.95c6.61-13.96 12.555-28.336 17.682-43.128zM872.941 661.609h-139.134c8.987 14.517 18.781 29.309 29.286 43.133h77.914c11.599-13.683 22.242-28.060 31.934-43.133zM800.404 148.947c-15.208 13.583-28.999 28.511-42.014 44.107h84.703c-12.841-15.491-26.668-29.867-41.59-43.133h-0.143v-0.141c-0.281-0.276-0.675-0.552-0.956-0.833zM873.329 234.556h-145.462c-8.843 13.819-17.114 28.095-24.189 42.993h193.559c-7.039-14.763-15.065-29.174-23.908-42.993zM925.281 512.522c-5.797-11.53-10.924-22.262-16.302-49.664-30.236 10.456-32.608-47.194-45.306-118.147h-44.912l27.231 166.179h40.741l-3.854-23.999c0 0 14.359 26.182 33.988 26.182 5.659 0 8.414-0.552 8.414-0.552zM1006.093 383.503c14.645 0 36.074 10.591 36.074 10.591l-7.744-46.813c0 0-23.484-5.833-38.267-5.833-52.095 0-78.62 35.283-78.62 88.732 0 80.71 49.196 123.563 99.486 123.563 22.778 0 49.16-10.421 49.16-10.421l-7.039-45.458c0 0-17.963 12.363-40.174 12.363-29.567 0-56.235-27.954-56.235-78.557 0-24.968 12.417-48.168 43.358-48.168zM1432.44 368.71c-2.229-1.079-3.859-2.711-4.989-4.864-1.237-2.048-1.769-4.201-1.769-6.525 0-2.153 0.532-4.342 1.769-6.355 1.13-2.189 2.76-3.684 4.846-4.899 2.229-1.074 4.279-1.772 6.65-1.772 2.193 0 4.417 0.698 6.61 1.772 2.091 1.215 3.752 2.711 4.846 4.899 1.237 2.013 1.804 4.201 1.804 6.355 0 2.324-0.567 4.477-1.804 6.525-1.237 2.153-2.898 3.785-4.984 4.864-2.055 1.109-4.279 1.631-6.472 1.631-2.229 0-4.422-0.522-6.507-1.631zM1448.46 362.737c0.951-1.596 1.518-3.509 1.518-5.281 0-1.907-0.567-3.82-1.518-5.416-0.956-1.772-2.336-3.127-3.997-4.061-1.804-0.974-3.609-1.496-5.516-1.496-1.948 0-3.752 0.522-5.557 1.496-1.769 0.934-3.042 2.289-4.135 4.061-0.956 1.772-1.38 3.509-1.38 5.416 0 1.772 0.424 3.684 1.523 5.281 0.951 1.772 2.331 3.127 4.135 4.096 1.804 0.939 3.609 1.355 5.413 1.355 1.907 0 3.568-0.417 5.373-1.355 1.804-0.969 3.185-2.184 4.141-4.096zM1271.203 412.12c0-35.107 17.682-69.456 54.18-69.456 26.101 0 40.603 17.779 40.603 17.779l-1.948-15.174h42.438l33.421 203.891-43.783-0.141-9.406-57.404c0 0-16.445 22.397-42.121 22.397-40.072 0-73.385-47.47-73.385-101.893zM1375.78 437.228c0-22.643-11.461-52.892-35.082-52.892-15.596 0-23.059 12.885-23.059 33.235 0 33.235 15.208 55.186 34.413 55.186 15.734-0.105 23.729-10.697 23.729-35.529zM1446.799 222.328c-0.286 0.417-0.675 0.698-1.099 0.833 1.099 0.141 2.193 0.557 2.898 1.215 0.711 0.838 1.099 1.636 1.099 2.711 0 0.693-0.286 1.355-0.675 2.048-0.424 0.663-0.987 1.079-1.799 1.355-0.711 0.276-1.948 0.417-3.609 0.417h-4.953v-13.995h2.336v5.973h1.38c0.849 0 1.375-0.276 1.804-0.557 0.67-0.381 1.518-1.456 2.474-3.228l1.237-2.189h2.796l-1.666 2.711c-0.987 1.35-1.518 2.184-2.224 2.706zM1443.829 223.636h-2.832v5.363h2.69c1.161 0 1.997-0.179 2.433-0.358 0.399-0.173 0.694-0.531 0.983-0.838 0.147-0.531 0.294-0.89 0.294-1.421 0-0.838-0.294-1.549-0.73-2.080-0.546-0.486-1.419-0.666-2.837-0.666zM1558.308 956.105h-1515.665c-22.776 0-41.167-18.020-41.167-40.423v-936.172c0-22.227 18.39-40.287 41.167-40.287h1515.665c22.773 0 41.165 18.061 41.165 40.287v936.172c0 22.403-18.392 40.423-41.165 40.423zM1456.061 217.605c-1.237-2.048-2.898-3.679-4.984-4.759-2.055-1.215-4.279-1.767-6.615-1.767-2.229 0-4.422 0.552-6.507 1.767-2.050 1.079-3.716 2.711-4.953 4.759-1.13 2.018-1.804 4.201-1.804 6.495 0 2.329 0.675 4.342 1.804 6.531 1.237 2.013 2.904 3.644 4.953 4.723 2.229 1.25 4.279 1.772 6.507 1.772 2.336 0 4.422-0.663 6.615-1.772 2.086-1.079 3.747-2.711 4.841-4.723 1.242-2.189 1.804-4.342 1.804-6.531 0-2.153-0.562-4.477-1.661-6.495zM1485.628 447.684c0.143-222.469-183.479-402.783-410.040-402.919-105.815 0-202.505 39.484-275.185 104.182-72.818-64.557-169.227-104.046-274.939-104.046-226.415 0-410.143 180.415-410.143 402.783 0 221.395 182.349 401.252 407.526 402.743h2.617c105.712 0 202.121-39.449 274.939-104.046 72.68 64.597 169.227 104.046 275.047 104.046 226.556 0.141 410.178-180.134 410.178-402.608v-0.136zM1433.109 364.228v-13.96h2.372v5.838h1.237c0.813 0 1.518-0.141 1.942-0.417 0.532-0.522 1.38-1.496 2.336-3.373l1.237-2.184h2.898l-1.769 2.846c-0.849 1.215-1.518 2.189-2.086 2.711-0.281 0.276-0.705 0.552-1.237 0.693 1.237 0.141 2.193 0.522 2.898 1.355 0.813 0.658 1.242 1.631 1.242 2.57 0 0.833-0.286 1.491-0.711 2.048-0.532 0.658-1.094 1.215-1.769 1.355-0.849 0.417-1.942 0.517-3.604 0.517h-4.989zM1441.445 360.935c0.294-0.307 0.436-0.659 0.436-1.37 0-0.666-0.289-1.37-0.726-1.901-0.547-0.493-1.42-0.666-2.84-0.666h-2.835v5.357h2.693c1.125 0 1.851-0.179 2.435-0.352 0.258-0.179 0.694-0.531 0.836-1.069zM1135.146 515.092c-29.991 0-52.907-9.482-52.907-9.482l-6.364-36.919c0 0 18.919 7.61 47.673 7.61 16.128 0 28.115-1.772 28.115-14.798 0-7.846-1.482-10.832-1.482-10.832s-12.841 1.074-18.781 1.074c-37.7 0-77.347-15.731-77.347-63.483 0-37.712 25.958-46.256 42.121-46.256 30.804 0 44.064 19.657 44.774 19.657l-1.559-16.394h38.589l17.114 118.006c0 50.186-44.488 51.817-59.946 51.817zM1113.574 377.946c-13.546 0-16.976 10.175-16.976 16.148 0 11.811 6.472 25.911 38.374 25.911 7.494 0 8.307-0.833 9.549-1.079 0.849-7.188-4.565-40.98-30.947-40.98zM1275.624 462.858c-30.242 10.456-32.608-47.054-45.449-118.147h-44.739l27.2 166.179h40.741l-3.997-23.999c0 0 14.502 26.182 34.132 26.182 5.654 0 8.414-0.552 8.414-0.552-5.797-11.53-11.031-22.262-16.302-49.664z" />
<glyph unicode="&#xe90c;" glyph-name="a-m-e-x" horiz-adv-x="1728" d="M323.173 416.696h69.517l-34.968 87.068zM1649.033 960h-1564.811c-43.483 0-78.763-34.627-78.763-77.368v-866.61c0-42.741 35.28-77.368 78.763-77.368h1564.811c43.483 0 78.763 34.627 78.763 77.368v866.61c0 42.741-35.28 77.368-78.763 77.368zM516.955 291.411c-2.94-4.257-7.852-6.823-13.121-6.823h-47.276c-6.572 0-12.351 3.89-14.759 9.867l-17.11 42.546h-133.118l-16.866-42.479c-2.385-6.044-8.187-9.934-14.781-9.934h-47.183c-5.246 0-10.136 2.543-13.104 6.806-2.963 4.23-3.581 9.65-1.677 14.453l121.3 305.697c2.368 6.044 8.187 9.934 14.759 9.934h47.030c6.549 0 12.328-3.868 14.742-9.867l122.804-305.72c1.926-4.803 1.331-10.218-1.637-14.481zM849.898 302.675c0-8.587-7.105-15.588-15.869-15.588h-40.786c-8.742 0-15.869 7.001-15.869 15.588v133.933l-69.494-134.912c-2.719-5.281-8.119-8.543-14.141-8.565-5.994 0-11.416 3.261-14.141 8.52l-70.196 135.307v-134.283c0-8.609-7.127-15.588-15.869-15.588h-40.786c-8.742 0-15.869 6.979-15.869 15.588v302.325c0 8.587 7.127 15.588 15.869 15.588h32.86c6 0 11.422-3.261 14.147-8.498l93.788-180.48 92.932 180.413c2.719 5.281 8.141 8.565 14.164 8.565h33.393c8.765 0 15.869-7.001 15.869-15.588v-302.325zM1201.94 299.37c0-8.587-7.127-15.588-15.869-15.588h-194.913c-8.736 0-15.841 7.001-15.841 15.588v302.631c0 8.587 7.105 15.566 15.841 15.566h189.491c8.765 0 15.869-6.979 15.869-15.566v-36.892c0-8.587-7.105-15.588-15.869-15.588h-136.064v-64.824h110.836c8.742 0 15.864-6.979 15.864-15.566v-36.892c0-8.587-7.122-15.588-15.864-15.588h-110.836v-64.824h141.486c8.742 0 15.869-6.979 15.869-15.566v-36.892zM1500.153 311.001l-33.042-23.48c-2.719-1.953-5.932-2.977-9.297-2.977-0.839 0-1.677 0.067-2.521 0.217-4.113 0.629-7.875 2.916-10.334 6.239l-78.808 106.958-78.48-106.913c-2.408-3.306-6.192-5.61-10.311-6.261-3.983-0.673-8.408 0.306-11.818 2.738l-33.087 23.435c-3.428 2.438-5.711 6.044-6.374 10.151-0.686 4.113 0.312 8.22 2.793 11.609l92.507 126.069-84.808 115.996c-5.11 7.001-3.473 16.74 3.632 21.766l33.127 23.368c2.725 1.914 5.909 2.911 9.252 2.911 5.088 0 9.915-2.41 12.878-6.478l70.689-96.696 71.018 96.74c2.482 3.389 6.13 5.61 10.311 6.283 4.249 0.673 8.436-0.351 11.818-2.76l33.087-23.435c3.456-2.438 5.711-6.022 6.374-10.129 0.686-4.113-0.306-8.242-2.787-11.609l-85.114-115.957 92.836-126.002c5.139-6.979 3.541-16.74-3.541-21.782z" />
<glyph unicode="&#xe90d;" glyph-name="credit" d="M564.302 87.654v-115.168h-102.6v109.936c-87.826 5.13-157.286 30.216-217.563 92.186l88.134 89.262c44.067-44.632 103.78-59.508 168.366-59.508 80.284 0 123.376 30.729 123.376 87.312 0 24.778-6.824 45.606-21.546 59.508-13.696 12.877-29.344 19.852-61.662 24.778l-84.234 11.902c-59.713 8.927-103.728 27.753-135.125 58.533-33.242 33.704-49.916 79.309-49.916 138.869 0 110.552 70.896 192.017 190.17 210.33v100.292h102.6v-99.112c70.896-7.438 126.454-31.806 175.19-79.567l-86.133-86.286c-44.067 42.682-96.907 48.58-142.973 48.58-72.436 0-107.679-40.63-107.679-89.262 0-17.852 5.9-36.731 20.571-50.581 13.696-12.928 36.217-23.803 64.638-27.753l82.182-11.902c63.663-8.927 103.78-26.778 133.175-54.532 37.243-35.705 53.866-87.312 53.866-149.796 0-115.426-80.387-187.86-192.837-208.022z" />
<glyph unicode="&#xe90e;" glyph-name="l-o-c-k" horiz-adv-x="848" d="M818.818 474.183c-13.579 13.577-30.058 20.36-49.46 20.36h-23.259v139.644c0 89.21-31.991 165.809-95.994 229.809-63.997 64.003-140.589 96.004-229.812 96.004-89.22 0-165.827-32.001-229.819-96.001-64.003-64.003-95.994-140.599-95.994-229.812v-139.644h-23.269c-19.387 0-35.876-6.783-49.453-20.36-13.577-13.567-20.363-30.055-20.363-49.46v-418.903c0-19.387 6.788-35.881 20.363-49.46 13.577-13.564 30.065-20.355 49.453-20.355h698.164c19.403 0 35.878 6.783 49.46 20.355 13.564 13.579 20.363 30.073 20.363 49.46v418.91c0.010 19.39-6.799 35.876-20.381 49.453zM606.47 494.544h-372.354v139.644c0 51.391 18.185 95.273 54.547 131.63 36.367 36.362 80.241 54.539 131.637 54.539 51.401 0 95.265-18.175 131.635-54.539 36.352-36.355 54.534-80.239 54.534-131.63v-139.644z" />
<glyph unicode="&#xe90f;" glyph-name="question-mark" d="M505.166 959.955c-282.746-3.784-508.872-236.088-505.11-518.845 3.784-282.635 236.065-508.828 518.801-505.066 282.691 3.807 508.861 236.11 505.099 518.845-3.784 282.657-236.077 508.839-518.79 505.066zM503.652 136.348l-2.827 0.045c-43.542 1.291-74.24 33.369-73.005 76.266 1.213 42.162 32.657 72.771 74.763 72.771l2.527-0.045c44.755-1.325 75.108-33.080 73.85-77.212-1.247-42.285-32.2-71.825-75.309-71.825zM686.803 499.857c-10.24-14.547-32.757-32.612-61.128-54.717l-31.243-21.571c-17.152-13.334-27.503-25.878-31.388-38.222-3.061-9.717-4.563-12.288-4.831-32.056l-0.045-5.020h-119.296l0.345 10.095c1.458 41.494 2.482 65.903 19.679 86.072 26.98 31.677 86.495 69.999 89.021 71.624 8.526 6.422 15.716 13.735 21.070 21.549 12.522 17.263 18.065 30.854 18.065 44.21 0 18.532-5.498 35.673-16.373 50.933-10.451 14.726-30.308 22.183-59.025 22.183-28.483 0-47.983-9.038-59.648-27.581-11.999-19.066-18.065-39.090-18.065-59.548v-5.087h-123.002l0.223 5.309c3.172 75.342 30.063 129.592 79.894 161.247 31.31 20.157 70.266 30.375 115.723 30.375 59.503 0 109.735-14.458 149.281-42.975 40.070-28.895 60.394-72.17 60.394-128.623 0-31.577-9.973-61.24-29.651-88.198z" />
<glyph unicode="&#xe910;" glyph-name="b-a-c-k" horiz-adv-x="585" d="M564.663 59.928l-388.242 388.218 383.22 383.22c15.908 13.504 25.936 33.515 25.936 55.869 0 40.396-32.747 73.143-73.143 73.143-19.854 0-37.86-7.91-51.040-20.752l-0.179 0.21-438.833-438.882c-13.806-13.285-22.382-31.92-22.382-52.557 0-0.028 0-0.057 0-0.085v-0.337c0-20.699 8.582-39.326 22.382-52.638l-0.024-0.024 438.882-438.833c13.192-12.982 31.305-20.998 51.291-20.998 40.396 0 73.143 32.747 73.143 73.143 0 19.991-8.020 38.11-21.019 51.312z" />
<glyph unicode="&#xe911;" glyph-name="n-e-x-x-t" horiz-adv-x="585" d="M585.143 448.146v0.171c0 0.024 0 0.053 0 0.081 0 20.638-8.576 39.272-22.358 52.535l0.001 0.047-439.052 438.662c-13.183 12.932-31.262 20.913-51.205 20.913-40.396 0-73.143-32.747-73.143-73.143 0-22.437 10.103-42.515 26.007-55.932l383.329-383.31-388.218-388.267c-12.388-13.075-20.005-30.779-20.005-50.262 0-40.396 32.747-73.143 73.143-73.143 19.483 0 37.186 7.617 50.295 20.036l-0.009-0.056 438.833 438.882c13.806 13.285 22.382 31.92 22.382 52.557 0 0.028 0 0.057 0 0.085v0.142z" />
<glyph unicode="&#xe912;" glyph-name="new-message" d="M932.329 853.514c-56.532 56.532-106.806 39.86-106.806 39.86l-443.182-442.822-74.54-221.565 221.462 74.591 442.926 443.131c0 0 16.621 50.274-39.86 106.806zM544.038 351.849l-24.163-24.112-75.566-25.65c-5.335 12.312-12.005 24.47-25.548 37.962-13.543 13.543-25.65 20.213-37.962 25.548l25.65 75.566 24.163 24.112c0 0 39.809 4.565 78.848-34.526 39.090-39.039 34.577-78.9 34.577-78.9zM820.803 75.085h-666.902v666.902h256.5l102.6 102.6h-359.101c-56.43 0-102.6-46.17-102.6-102.6v-666.902c0-56.43 46.17-102.6 102.6-102.6h666.902c56.43 0 102.6 46.17 102.6 102.6v359.101l-102.6-102.6v-256.5z" />
<glyph unicode="&#xe913;" glyph-name="play" d="M981.188 799.892c-143.632 20.65-302.332 32.108-469.186 32.108-166.86 0-325.556-11.458-469.194-32.108-27.53-107.726-42.808-226.75-42.808-351.892 0-125.14 15.278-244.166 42.808-351.89 143.638-20.652 302.336-32.11 469.194-32.11 166.854 0 325.552 11.458 469.186 32.11 27.532 107.724 42.812 226.75 42.812 351.89 0 125.142-15.28 244.166-42.812 351.892zM384.002 256v384l320-192-320-192z" />
<glyph unicode="&#xe93a;" glyph-name="cart" d="M384 32c0-53.019-42.981-96-96-96s-96 42.981-96 96c0 53.019 42.981 96 96 96s96-42.981 96-96zM1024 32c0-53.019-42.981-96-96-96s-96 42.981-96 96c0 53.019 42.981 96 96 96s96-42.981 96-96zM1024 448v384h-768c0 35.346-28.654 64-64 64h-192v-64h128l48.074-412.054c-29.294-23.458-48.074-59.5-48.074-99.946 0-70.696 57.308-128 128-128h768v64h-768c-35.346 0-64 28.654-64 64 0 0.218 0.014 0.436 0.016 0.656l831.984 127.344z" />
<glyph unicode="&#xe986;" glyph-name="search" d="M992.262 88.604l-242.552 206.294c-25.074 22.566-51.89 32.926-73.552 31.926 57.256 67.068 91.842 154.078 91.842 249.176 0 212.078-171.922 384-384 384-212.076 0-384-171.922-384-384s171.922-384 384-384c95.098 0 182.108 34.586 249.176 91.844-1-21.662 9.36-48.478 31.926-73.552l206.294-242.552c35.322-39.246 93.022-42.554 128.22-7.356s31.892 92.898-7.354 128.22zM384 320c-141.384 0-256 114.616-256 256s114.616 256 256 256 256-114.616 256-256-114.614-256-256-256z" />
<glyph unicode="&#xea8b;" glyph-name="google-plus" d="M325.8 502.6v-111.8h184.8c-7.4-48-55.8-140.6-184.8-140.6-111.2 0-202 92.2-202 205.8s90.8 205.8 202 205.8c63.4 0 105.6-27 129.8-50.2l88.4 85.2c-56.8 53-130.4 85.2-218.2 85.2-180.2-0.2-325.8-145.8-325.8-326s145.6-325.8 325.8-325.8c188 0 312.8 132.2 312.8 318.4 0 21.4-2.4 37.8-5.2 54h-307.6zM1024 512h-96v96h-96v-96h-96v-96h96v-96h96v96h96z" />
<glyph unicode="&#xea90;" glyph-name="facebook2" d="M608 768h160v192h-160c-123.514 0-224-100.486-224-224v-96h-128v-192h128v-512h192v512h160l32 192h-192v96c0 17.346 14.654 32 32 32z" />
<glyph unicode="&#xf182;" glyph-name="uniF182" d="M615.602 754.813h153.9q21.034 0 36.166-15.134t15.134-36.166v-51.3h-666.902v51.3q0 21.034 15.134 36.166t36.166 15.134h153.9q8.722 44.118 45.4 73.36t82.85 29.242 82.85-29.242 45.4-73.36zM410.401 754.813h153.9q-8.208 22.060-30.010 36.68t-46.94 14.62-46.94-14.62-30.010-36.68zM205.2 600.911h564.302v-513.001q0-21.034-15.134-36.166t-36.166-15.134h-461.701q-21.034 0-36.166 15.134t-15.134 36.166v513.001zM359.101 139.21v359.101h-51.3v-359.101h51.3zM513.001 139.21v359.101h-51.3v-359.101h51.3zM666.902 139.21v359.101h-51.3v-359.101h51.3z" />
<glyph unicode="&#xf335;" glyph-name="uniF335" d="M766.937 628.613l-181.602-181.602 181.602-181.602-72.334-72.334-181.602 181.090-181.090-181.090-72.846 72.846 181.090 181.090-181.090 181.090 72.846 72.846 181.090-181.090 181.602 181.090z" />
</font>
</defs>
</svg>
