<?xml version="1.0" standalone="no"?>
<!DOCTYPE svg PUBLIC "-//W3C//DTD SVG 1.1//EN" "http://www.w3.org/Graphics/SVG/1.1/DTD/svg11.dtd" >
<svg xmlns="http://www.w3.org/2000/svg">
<metadata></metadata>
<defs>
<font id="sfu_daxcondensedmedium" horiz-adv-x="929" >
<font-face units-per-em="2048" ascent="1638" descent="-410" />
<missing-glyph horiz-adv-x="520" />
<glyph horiz-adv-x="0" />
<glyph unicode="&#xd;" horiz-adv-x="2048" />
<glyph unicode=" "  horiz-adv-x="520" />
<glyph unicode="&#x09;" horiz-adv-x="520" />
<glyph unicode="&#xa0;" horiz-adv-x="520" />
<glyph unicode="!" horiz-adv-x="573" d="M166 127q0 61 42 103t101 42t101.5 -42t42.5 -103q0 -59 -42 -101t-102 -42q-59 0 -101 42t-42 101zM172 1409h274l-53 -934h-170z" />
<glyph unicode="&#x22;" horiz-adv-x="772" d="M139 1370q35 57 101 57q65 0 100 -57l-49 -536h-105zM457 1370q35 57 102 57q61 0 100 -57l-49 -536h-104z" />
<glyph unicode="#" d="M27 463v123h186l41 272h-170v123h186l66 428h123l-64 -428h201l66 428h122l-63 -428h168v-123h-187l-40 -272h167v-121h-186l-70 -465h-122l69 465h-203l-69 -465h-123l70 463h-168zM336 586h201l41 272h-201z" />
<glyph unicode="$" d="M115 61l55 183q82 -68 207 -68q80 0 130 49t50 127q0 84 -45 150q-41 59 -154 151q-229 188 -229 400q0 152 80 250t211 120l-17 236h138l-19 -232q145 -6 230 -79l-45 -158q-76 57 -185 57q-76 0 -122 -46t-46 -126t41 -138t152 -149q131 -106 186 -190q66 -100 66 -225 q0 -160 -85 -263.5t-231 -125.5l21 -244h-144l21 240q-174 6 -266 81z" />
<glyph unicode="%" horiz-adv-x="1468" d="M94 946q0 485 246 486q246 -1 246 -486q0 -483 -246 -483t-246 483zM231 946q0 -362 109 -362t109 362q0 383 -109 383t-109 -383zM477 14l402 1409l108 -30l-401 -1407zM883 463q0 483 245 483q246 0 246 -483q0 -485 -246 -486q-246 0 -245 486zM1020 463 q0 -362 108 -363q107 1 109 363q2 381 -109 381q-109 0 -108 -381z" />
<glyph unicode="&#x26;" horiz-adv-x="1103" d="M96 389q0 274 271 395v4q-195 92 -195 302q0 143 88 237q94 102 256 103q178 0 277 -82l-66 -148q-70 55 -164 55q-174 0 -174 -182q0 -84 56.5 -138t138.5 -54q186 0 450 159l66 -153q-63 -39 -193 -76v-750q-102 -82 -350 -81q-203 0 -332 109.5t-129 299.5zM332 412 q0 -123 62.5 -198t172.5 -75q82 0 121 23v596q-197 -51 -276.5 -128t-79.5 -218z" />
<glyph unicode="'" horiz-adv-x="487" d="M139 1370q41 57 117 57t117 -57l-58 -536h-120z" />
<glyph unicode="(" horiz-adv-x="657" d="M104 586q0 266 91.5 506.5t310.5 543.5l108 -69q-285 -471 -284 -981q-1 -508 284 -983l-108 -70q-219 303 -310.5 543.5t-91.5 509.5z" />
<glyph unicode=")" horiz-adv-x="657" d="M43 -397q283 471 283 983q0 514 -283 981l107 69q219 -303 311 -542.5t92 -507.5t-92 -510t-311 -543z" />
<glyph unicode="*" horiz-adv-x="817" d="M109 1382q0 37 26.5 64t63.5 27q35 0 61.5 -27t26.5 -64t-27 -62.5t-61 -25.5q-37 0 -63.5 26t-26.5 62zM195 1118q0 37 25.5 62.5t62.5 25.5t63.5 -25.5t26.5 -62.5t-27 -63.5t-63 -26.5q-37 0 -62.5 26.5t-25.5 63.5zM334 1546q0 37 25.5 62.5t62.5 25.5t63.5 -25.5 t26.5 -62.5t-26.5 -63.5t-63.5 -26.5t-62.5 26.5t-25.5 63.5zM352 1309q0 29 20.5 49t49.5 20q70 1 70 -69q0 -68 -70 -68q-29 0 -49.5 20.5t-20.5 47.5zM471 1118q0 37 26.5 62.5t63.5 25.5t62.5 -25.5t25.5 -62.5q0 -39 -25.5 -64.5t-62.5 -25.5t-63.5 26.5t-26.5 63.5z M557 1382q0 37 26.5 64t63.5 27t63.5 -27t26.5 -64t-26.5 -63.5t-63.5 -26.5t-63.5 27t-26.5 63z" />
<glyph unicode="+" d="M115 612v148h274v344h150v-344h274v-148h-274v-344h-150v344h-274z" />
<glyph unicode="," horiz-adv-x="509" d="M4 -352l156 545q49 82 143 81q95 1 105 -79l-269 -547h-135z" />
<glyph unicode="-" horiz-adv-x="612" d="M92 586v196h428v-196h-428z" />
<glyph unicode="." horiz-adv-x="491" d="M102 131q0 59 42 101t102 42q59 0 101 -42t42 -101t-42 -101t-101 -42t-101.5 42t-42.5 101z" />
<glyph unicode="/" horiz-adv-x="1009" d="M27 -408l817 2038l139 -57l-817 -2038z" />
<glyph unicode="0" d="M86 705q0 725 379 725q377 0 377 -725t-377 -725q-379 0 -379 725zM297 698q0 -231 14 -323q35 -217 154 -217q100 0 139 151q29 119 29 389q0 279 -29 406q-39 164 -139 164q-117 0 -152 -232q-16 -102 -16 -338z" />
<glyph unicode="1" d="M123 1192q137 18 244 86q98 59 133 131h157v-1409h-221v1124q-106 -47 -293 -61z" />
<glyph unicode="2" d="M55 0l424 723q98 168 99 291q0 100 -58.5 165.5t-167.5 65.5q-100 0 -182 -51l-61 154q127 82 307 82q182 0 289 -115q98 -109 98 -279q0 -162 -144 -381l-294 -452h440v-203h-750z" />
<glyph unicode="3" d="M72 61l63 166q76 -59 217 -59q98 0 162 71.5t64 178.5q0 127 -83 202.5t-223 75.5v133q127 10 203 73t76 161q0 80 -53.5 133t-141.5 53q-102 0 -180 -51l-61 148q117 84 299 84q164 0 260 -101q90 -94 90 -235q0 -193 -174 -295v-4q215 -103 215 -371q0 -184 -119 -314 t-291 -130q-211 0 -323 81z" />
<glyph unicode="4" d="M88 295v160l461 954h203v-958h90v-156h-90v-295h-209v295h-455zM233 451h308v510q0 61 4 143h-4q-14 -35 -62 -143z" />
<glyph unicode="5" d="M78 61l61 166q78 -59 221 -59q92 0 158 74.5t66 175.5q0 285 -289 284q-70 0 -154 -18l58 725h575v-203h-424l-24 -352q35 4 67 4q199 0 309 -123q105 -116 105 -315q0 -180 -117 -310t-293 -130q-207 0 -319 81z" />
<glyph unicode="6" d="M86 514q0 422 258 690q158 162 346 221l60 -163q-301 -109 -404 -426q47 20 125 20q178 0 279 -125q94 -116 94 -309q0 -182 -90 -305q-102 -137 -283 -137q-180 0 -282.5 142t-102.5 392zM297 510q0 -362 174 -363q164 1 164 275q0 289 -211 289q-63 0 -115 -19 q-12 -66 -12 -182z" />
<glyph unicode="7" d="M100 1206v203h777l-158 -440q-229 -643 -291 -969h-268l446 1206h-506z" />
<glyph unicode="8" d="M86 346q0 121 66 217q53 80 178 176q-111 94 -156 168q-51 82 -51 191q0 147 102 241q96 90 238 91q141 0 241.5 -92.5t100.5 -239.5q0 -104 -53 -185q-45 -68 -162 -161q131 -106 184 -187q68 -100 68 -221q0 -162 -109.5 -263t-269.5 -101q-162 0 -269.5 100 t-107.5 266zM281 352q0 -86 50 -143t130 -57q78 0 128 55t50 141q0 80 -45 148q-39 59 -139 139q-174 -137 -174 -283zM313 1102q0 -117 152 -252q90 74 124 127t34 125q0 74 -45.5 124t-110.5 50q-68 0 -111 -49t-43 -125z" />
<glyph unicode="9" d="M86 987q0 182 90 305q102 137 283 138q178 0 281.5 -142.5t103.5 -394.5q0 -424 -258 -688q-162 -166 -348 -221l-56 161q119 45 219 140q129 119 183 286q-61 -20 -127 -20q-176 0 -277 127q-94 119 -94 309zM297 985q0 -287 209 -287q70 0 115 17q14 80 14 182 q0 369 -178 369q-160 0 -160 -281z" />
<glyph unicode=":" horiz-adv-x="491" d="M102 127q0 61 42 104t102 43q59 0 101 -43t42 -104q0 -59 -42 -101t-101 -42t-101.5 42t-42.5 101zM102 778q0 59 42 102.5t102 43.5q59 0 101 -43.5t42 -102.5t-42 -102t-101 -43t-101.5 43t-42.5 102z" />
<glyph unicode=";" horiz-adv-x="509" d="M4 -352l156 545q49 82 143 81q95 1 105 -79l-269 -547h-135zM121 778q0 59 42 102.5t101 43.5t101.5 -43.5t42.5 -102.5t-42 -102t-102 -43q-59 0 -101 43t-42 102z" />
<glyph unicode="&#x3c;" d="M115 608v152l698 307v-172l-549 -211l549 -209v-172z" />
<glyph unicode="=" d="M115 424v149h698v-149h-698zM115 797v147h698v-147h-698z" />
<glyph unicode="&#x3e;" d="M115 303v170l549 211l-549 211v172l698 -305v-154z" />
<glyph unicode="?" horiz-adv-x="798" d="M86 1346q113 84 285 84q168 0 263 -93.5t95 -251.5q0 -115 -86 -211q-68 -76 -156 -112l-16 -287h-170l-20 354q90 20 151 80q72 68 72 156q0 74 -43 123q-49 57 -133 57q-98 0 -176 -51zM242 127q0 59 43 101t102 42t101 -42t42 -101t-42 -102t-101 -43t-102 43t-43 102 z" />
<glyph unicode="@" horiz-adv-x="1470" d="M102 453q0 397 222.5 687t539.5 290q219 0 354.5 -160t135.5 -430q0 -231 -94 -455q-113 -266 -283 -266q-125 0 -137 174q-111 -170 -240 -170q-104 0 -160 100q-49 90 -49 230q0 195 90 370q104 201 258 201q70 0 113 -43q31 -35 72 -125l22 129h111l-53 -307 q-23 -104 -48 -326q-2 -115 56 -114q102 0 182 247q66 205 66 353q0 227 -112 361t-292 134q-276 0 -469 -274q-186 -262 -186 -610q0 -287 153 -461q147 -168 379 -168q207 0 363 108q90 63 190 195l51 -80q-123 -158 -227 -225q-156 -100 -377 -101q-276 0 -450 195 q-180 201 -181 541zM516 457q0 -94 34 -153.5t95 -59.5q104 0 176 164q60 135 62 276q2 100 -38 158.5t-100 58.5q-106 0 -174 -164q-55 -135 -55 -280z" />
<glyph unicode="A" horiz-adv-x="1030" d="M18 0l398 1409h205l391 -1409h-236l-90 354h-371l-92 -354h-205zM352 512h297l-102 434q-18 82 -41 189h-2q-8 -49 -41 -189z" />
<glyph unicode="B" horiz-adv-x="1028" d="M133 61v1287q121 82 338 82q203 0 318.5 -100.5t115.5 -268.5q0 -238 -219 -313v-5q100 -29 170 -104q90 -98 90 -250q0 -209 -139 -315q-123 -94 -322 -94q-225 0 -352 81zM354 164q43 -18 127 -19h4q228 0 228 252q0 143 -71 207t-239 64h-49v-504zM354 803h49 q145 0 211 52t66 187q0 229 -203 230q-68 0 -123 -21v-448z" />
<glyph unicode="C" horiz-adv-x="858" d="M98 705q0 303 115 503q127 221 346 222q160 0 252 -82l-49 -152q-68 47 -160 47q-139 0 -209 -170q-57 -141 -57 -368q0 -217 61 -361q72 -168 203 -168q100 0 162 49l51 -164q-77 -81 -254 -81h-4q-221 0 -344 213q-113 197 -113 512z" />
<glyph unicode="D" horiz-adv-x="1081" d="M133 61v1287q129 82 330 82q262 0 395 -201q125 -184 125 -514q0 -334 -119 -525q-130 -210 -389 -210h-2q-231 0 -340 81zM360 182q47 -18 111 -18q147 0 212 133t65 422q0 536 -280 536h-1q-68 0 -107 -16v-1057z" />
<glyph unicode="E" horiz-adv-x="800" d="M133 0v1409h590v-180h-358v-418h317v-176h-317v-455h358v-180h-590z" />
<glyph unicode="F" horiz-adv-x="782" d="M133 0v1409h588v-180h-356v-418h317v-176h-317v-635h-232z" />
<glyph unicode="G" horiz-adv-x="1067" d="M98 713q0 326 144.5 521.5t380.5 195.5q201 0 305 -82l-66 -160q-76 55 -213 55q-145 0 -230 -137t-85 -399q0 -233 65 -381q72 -160 203 -160q84 0 121 20v457h-166v168h389v-750q-118 -81 -327 -81h-5q-238 0 -377 194.5t-139 538.5z" />
<glyph unicode="H" horiz-adv-x="1083" d="M133 0v1409h232v-600h354v600h231v-1409h-231v635h-354v-635h-232z" />
<glyph unicode="I" horiz-adv-x="501" d="M137 0v1409h232v-1409h-232z" />
<glyph unicode="J" horiz-adv-x="507" d="M-53 -276q80 18 135 102q61 94 61 227v1356h232v-1331q0 -233 -129 -381q-119 -137 -299 -154v181z" />
<glyph unicode="K" horiz-adv-x="987" d="M137 0v1409h230v-657h4l344 657h227l-362 -655l391 -754h-256l-344 727h-4v-727h-230z" />
<glyph unicode="L" horiz-adv-x="737" d="M137 0v1409h232v-1229h327v-180h-559z" />
<glyph unicode="M" horiz-adv-x="1376" d="M80 0l131 1409h223l215 -868q18 -78 35 -164h4q8 41 37 162l219 870h223l131 -1409h-219l-69 905q-4 51 -4 114v44h-5q-8 -41 -34 -158l-224 -905h-125l-225 905q-16 63 -35 158h-4q0 -90 -4 -158l-67 -905h-203z" />
<glyph unicode="N" horiz-adv-x="1140" d="M133 0v1409h217l408 -844q29 -61 61 -135h4q-6 78 -6 141v838h195v-1409h-185l-446 922q-29 59 -55 131h-7q6 -70 7 -131v-922h-193z" />
<glyph unicode="O" horiz-adv-x="1105" d="M98 705q0 322 105 509q119 215 350 216q231 0 350 -216q105 -187 105 -509t-105 -512q-119 -213 -350 -213t-350 213q-104 190 -105 512zM332 711q0 -535 221 -535q219 0 219 535q0 538 -218 538h-1q-221 0 -221 -538z" />
<glyph unicode="P" horiz-adv-x="956" d="M133 0v1348q129 82 334 82q221 0 332 -123q102 -113 102 -318q0 -193 -98 -309q-111 -129 -318 -129q-43 0 -90 6l-33 4v-561h-229zM362 721l33 -2q17 -1 33 -1q248 0 248 273q0 279 -215 279q-61 0 -99 -17v-532z" />
<glyph unicode="Q" horiz-adv-x="1105" d="M98 705q0 319 107 509q119 215 348 216q231 0 350 -216q105 -187 105 -509q0 -473 -215 -646l184 -256l-186 -168l-140 357q-49 -12 -98 -12q-231 0 -350 215q-104 188 -105 510zM334 713q0 -539 219 -539q221 0 221 539q0 536 -220 536h-1q-219 0 -219 -536z" />
<glyph unicode="R" horiz-adv-x="1001" d="M133 0v1348q127 82 330 82q438 0 438 -439q0 -135 -86 -237.5t-203 -120.5v-4l344 -629h-256l-333 666h-5v-666h-229zM360 721q25 -4 39 -4q117 0 191 63q86 72 86 207q0 285 -213 285q-61 0 -103 -19v-532z" />
<glyph unicode="S" horiz-adv-x="827" d="M68 61l55 185q82 -68 207 -68q80 0 130 48t50 126q0 84 -45 150q-41 59 -154 151q-231 190 -231 400q0 170 101.5 273.5t258.5 103.5q172 0 265 -82l-46 -158q-76 57 -184 57q-76 0 -122 -46t-46 -126t41 -138t152 -149q131 -106 186 -190q66 -100 66 -225 q0 -178 -105.5 -285.5t-279.5 -107.5q-197 0 -299 81z" />
<glyph unicode="T" horiz-adv-x="749" d="M39 1229v180h672v-180h-222v-1229h-229v1229h-221z" />
<glyph unicode="U" horiz-adv-x="1058" d="M133 401v1008h229v-1026q0 -94 48.5 -149.5t128.5 -55.5t128 55.5t48 149.5v1026h211v-1010q0 -195 -112 -308.5t-286 -113.5q-172 0 -280 111q-115 117 -115 313z" />
<glyph unicode="V" horiz-adv-x="948" d="M31 1409h237l187 -920q14 -72 22 -170h4q6 45 29 170l192 920h216l-343 -1409h-202z" />
<glyph unicode="W" horiz-adv-x="1409" d="M39 1409h227l146 -897q12 -74 18 -162h4q4 41 25 162l180 897h156l178 -895q14 -72 22 -164h4q4 43 21 164l149 895h201l-274 -1409h-193l-166 805q-14 74 -24 162h-4q-6 -39 -31 -164l-172 -803h-195z" />
<glyph unicode="X" horiz-adv-x="915" d="M12 0l330 719l-291 690h236l180 -471h4l186 471h209l-291 -659l328 -750h-256l-198 514l-207 -514h-230z" />
<glyph unicode="Y" horiz-adv-x="894" d="M10 1409h244l203 -565h4l207 565h215l-322 -786v-623h-229v623z" />
<glyph unicode="Z" horiz-adv-x="804" d="M41 0l410 1229h-373v180h661l-395 -1229h399v-180h-702z" />
<glyph unicode="[" horiz-adv-x="606" d="M133 -440v2048h414v-144h-228l3 -1759h225v-145h-414z" />
<glyph unicode="\" horiz-adv-x="1015" d="M33 1573l139 57l817 -2038l-139 -57z" />
<glyph unicode="]" horiz-adv-x="606" d="M59 -295h226v1757h-226v146h414v-2048h-414v145z" />
<glyph unicode="^" horiz-adv-x="960" d="M117 958l266 408q39 59 98 59t99 -59l266 -408l-84 -98l-281 367l-282 -367z" />
<glyph unicode="_" d="M-20 -272h970v-166h-970v166z" />
<glyph unicode="`" horiz-adv-x="368" d="M-16 1499q10 39 82 39t122 -39l105 -274h-107z" />
<glyph unicode="a" horiz-adv-x="911" d="M78 319q0 199 147 299q117 82 359 111v47q0 184 -174 185q-125 0 -228 -64l-47 145q127 82 311 82q346 0 347 -383v-680q-120 -81 -333 -81h-5q-186 0 -281.5 90t-95.5 249zM283 326q0 -197 184 -197q74 0 117 25v442q-158 -25 -224 -78q-78 -63 -77 -192z" />
<glyph unicode="b" horiz-adv-x="956" d="M117 61v1547h219v-529q53 37 170 37q164 0 263 -146t99 -392q0 -283 -110 -437q-116 -161 -331 -161h-3q-203 0 -307 81zM336 160q37 -20 96 -21q219 0 219 426q0 180 -47 285q-51 119 -153 119q-68 0 -115 -29v-780z" />
<glyph unicode="c" horiz-adv-x="735" d="M88 555q0 268 109 424q100 145 264 145q150 0 225 -82l-45 -139q-51 51 -133 51q-197 0 -197 -395q0 -184 51.5 -290.5t143.5 -106.5q86 0 133 51l47 -152q-67 -81 -223 -81h-4q-170 0 -270.5 150.5t-100.5 424.5z" />
<glyph unicode="d" horiz-adv-x="958" d="M88 543q0 266 113 424q110 151 289 151h2q74 0 131 -20v510h217v-1547q-116 -81 -317 -81h-5q-207 0 -318.5 147t-111.5 416zM307 555q0 -410 219 -410q70 1 97 19v792q-68 12 -84 13q-231 0 -232 -414z" />
<glyph unicode="e" horiz-adv-x="950" d="M88 555q0 260 108.5 414.5t290.5 154.5q193 0 290 -154q88 -140 88 -391q0 -26 -1 -53l-561 -67q23 -303 244 -303q147 0 231 63l51 -158q-110 -81 -302 -81h-5q-205 0 -319.5 148t-114.5 427zM293 602l354 45q-4 315 -166 316q-84 -1 -137 -99q-51 -95 -51 -250v-12z " />
<glyph unicode="f" horiz-adv-x="595" d="M74 942v162h98v129q0 188 100 287q88 89 236 89q18 0 37 -1v-164h-6q-152 0 -152 -187v-153h158v-162h-158v-942h-215v942h-98z" />
<glyph unicode="g" horiz-adv-x="958" d="M88 524q0 285 113 439q116 161 337 161h3q193 0 301 -82v-1056q0 -217 -103.5 -332t-283.5 -115q-207 0 -320 82l60 164q82 -66 221 -66q209 0 209 244v64q-59 -45 -172 -45q-166 0 -265.5 147t-99.5 395zM307 539q0 -180 47 -287q51 -115 150 -115q62 0 121 33v774 q-37 18 -103 19q-215 0 -215 -424z" />
<glyph unicode="h" horiz-adv-x="966" d="M117 0v1608h219v-539q96 55 199 55q145 0 229 -88t84 -250v-786h-217v786q0 178 -154 179q-74 0 -141 -39v-926h-219z" />
<glyph unicode="i" horiz-adv-x="466" d="M111 1423q0 51 35.5 87t86.5 36t87 -36t36 -87t-35.5 -85.5t-87.5 -34.5q-51 0 -86.5 34.5t-35.5 85.5zM123 0v1104h219v-1104h-219z" />
<glyph unicode="j" horiz-adv-x="464" d="M-41 -289q162 63 162 361v1032h217v-1012q0 -244 -117 -397q-106 -139 -262 -152v168zM109 1423q0 51 35.5 87t86.5 36t86 -36t35 -87t-34.5 -85.5t-86.5 -34.5q-51 0 -86.5 34.5t-35.5 85.5z" />
<glyph unicode="k" horiz-adv-x="909" d="M123 0v1608h215v-1014h4l322 510h215l-340 -508l366 -596h-237l-326 580h-4v-580h-215z" />
<glyph unicode="l" horiz-adv-x="471" d="M127 0v1608h217v-1608h-217z" />
<glyph unicode="m" horiz-adv-x="1478" d="M117 0v1042q139 82 352 82q203 0 293 -112q105 112 290 112h3q137 0 219 -86q88 -92 88 -250v-788h-219v788q0 174 -150 175q-86 0 -145 -68v-895h-217v788q0 78 -44 127.5t-120 49.5q-80 0 -131 -27v-938h-219z" />
<glyph unicode="n" horiz-adv-x="966" d="M117 0v1042q137 82 366 82q365 0 365 -336v-788h-217v788q0 174 -158 175q-78 0 -137 -25v-938h-219z" />
<glyph unicode="o" horiz-adv-x="950" d="M88 551q0 256 94 410q101 163 291 163h2q193 0 295 -163q92 -152 92 -410q0 -254 -94 -406q-99 -165 -289 -165h-2q-193 0 -295 165q-94 152 -94 406zM307 555q0 -399 170 -399q166 0 166 399q0 410 -166 410q-170 0 -170 -410z" />
<glyph unicode="p" horiz-adv-x="958" d="M117 -440v1482q123 82 319 82q209 0 320.5 -145.5t111.5 -417.5q0 -266 -111.5 -422.5t-291.5 -156.5q-61 0 -129 22v-444h-219zM336 154q39 -14 82 -15q125 0 184 133q49 107 49 281q0 414 -219 414q-61 0 -96 -19v-794z" />
<glyph unicode="q" horiz-adv-x="958" d="M88 524q0 281 115.5 440.5t331.5 159.5q199 0 307 -82v-1482h-219v465q-61 -41 -172 -41q-164 0 -263.5 146t-99.5 394zM307 539q0 -180 47 -285q53 -115 152 -115q66 0 117 31v776q-37 18 -99 19q-217 0 -217 -426z" />
<glyph unicode="r" horiz-adv-x="598" d="M117 0v1042q137 81 401 81q29 0 60 -1l-48 -184q-47 20 -96 20q-57 0 -98 -24v-934h-219z" />
<glyph unicode="s" horiz-adv-x="733" d="M61 61l58 164q62 -67 175 -67h3q59 0 97 35.5t38 93.5q0 66 -35 110q-27 35 -110 99q-207 156 -207 323q0 131 83 218t212 87q162 0 256 -82l-56 -143q-59 59 -157 59q-51 0 -86 -36.5t-35 -85.5q0 -82 94 -160l176 -144q95 -100 95 -239q0 -135 -95.5 -224t-238.5 -89 q-172 0 -267 81z" />
<glyph unicode="t" horiz-adv-x="602" d="M74 942v162h98v246l215 73v-319h158v-162h-158v-635q0 -147 102 -147q29 0 56 10v-160q-49 -22 -112 -22h-5q-121 0 -188.5 78.5t-67.5 220.5v655h-98z" />
<glyph unicode="u" horiz-adv-x="958" d="M117 352v752h221v-776q0 -178 151 -178q70 0 132 34v920h219v-1036q-127 -90 -359 -91q-365 0 -364 375z" />
<glyph unicode="v" horiz-adv-x="890" d="M47 1104h223l181 -797h4l188 797h201l-299 -1104h-199z" />
<glyph unicode="w" horiz-adv-x="1359" d="M55 1104h211l154 -801h4l182 801h168l174 -801h4l160 801h193l-265 -1104h-186l-174 758h-4l-180 -758h-185z" />
<glyph unicode="x" horiz-adv-x="864" d="M33 0l286 561l-258 543h224l153 -354h2l166 354h197l-262 -514l290 -590h-235l-168 389h-4l-180 -389h-211z" />
<glyph unicode="y" horiz-adv-x="892" d="M47 1104h225l170 -813h7l194 813h203l-436 -1544h-222l158 440z" />
<glyph unicode="z" horiz-adv-x="743" d="M47 0l356 942h-325v162h602l-346 -942h352v-162h-639z" />
<glyph unicode="{" horiz-adv-x="700" d="M88 610v138q143 0 143 217v327q0 315 383 316v-131q-193 0 -192 -201v-350q0 -211 -174 -246v-4q174 -35 174 -250v-354q0 -201 192 -201v-131q-383 0 -383 317v330q0 223 -143 223z" />
<glyph unicode="|" horiz-adv-x="425" d="M129 -440v2048h168v-2048h-168z" />
<glyph unicode="}" horiz-adv-x="700" d="M88 -129q190 0 191 201v354q0 215 174 250v4q-174 35 -174 246v350q0 201 -191 201v131q381 0 381 -316v-327q0 -217 145 -217v-138q-145 0 -145 -223v-330q0 -317 -381 -317v131z" />
<glyph unicode="~" horiz-adv-x="1095" d="M152 686q41 152 188 172q82 10 194.5 -55.5t172.5 -57.5q125 18 159 134l80 -148q-20 -78 -82.5 -122t-144.5 -44q-59 0 -172 64q-102 59 -168 49q-113 -16 -154 -131z" />
<glyph horiz-adv-x="1019" d="M-84 535l43 96h115q6 51 24 149h-135l43 99h121q84 229 221 374q170 180 383 181q193 -1 338 -138l-47 -319l-98 12q0 322 -193 322q-211 0 -330 -432h353l-43 -99h-336q-12 -49 -33 -149h301l-43 -96h-274q-12 -84 -13 -152q0 -115 43 -186q53 -88 160 -88 q119 0 207 139q49 78 104 244l113 -21l-111 -385q-158 -109 -325 -109q-227 0 -340 173q-96 145 -96 385h-152z" />
<glyph unicode="&#xa1;" horiz-adv-x="573" d="M166 842q0 59 42 102t101 43t101.5 -43t42.5 -102t-42 -101.5t-102 -42.5q-59 0 -101 42t-42 102zM172 -440l51 934h170l53 -934h-274z" />
<glyph unicode="&#xa2;" d="M152 694q0 207 71.5 334t194.5 154l-17 200h138l-15 -196q100 -10 156 -74l-45 -137q-47 47 -119 47q-154 0 -154 -324q0 -152 41 -239.5t113 -87.5q74 0 119 49l47 -152q-57 -63 -160 -71l17 -197h-142l17 201q-123 29 -192.5 156.5t-69.5 336.5z" />
<glyph unicode="&#xa3;" d="M90 659v148h133q-33 154 -33 246q0 162 97.5 269.5t271.5 107.5q188 0 279 -82l-54 -152q-70 51 -182 51q-201 0 -201 -258q0 -88 21 -182h229v-148h-207q12 -98 13 -157q0 -158 -82 -299h473v-203h-752q174 238 174 489q0 94 -16 170h-164z" />
<glyph unicode="&#xa4;" d="M53 352l90 99q-84 100 -84 264t84 264l-90 98l78 86l90 -98q102 90 244 90q141 0 244 -90l90 98l78 -86l-91 -98q82 -102 82 -264t-82 -264l91 -99l-78 -86l-90 99q-102 -90 -244 -91q-141 0 -244 91l-90 -99zM201 715q0 -123 75.5 -212t188.5 -89t188.5 89t75.5 212 q0 125 -74.5 213t-189.5 88q-117 0 -190.5 -88t-73.5 -213z" />
<glyph unicode="&#xa5;" d="M41 1409h235l197 -590h4l205 590h207l-211 -516l172 16v-102l-199 14l-82 -198l281 14v-102l-279 14v-549h-213v549l-280 -14v102l284 -14l-83 198l-201 -14v102l174 -16z" />
<glyph unicode="&#xa6;" horiz-adv-x="421" d="M129 -358v716h164v-716h-164zM129 666v716h164v-716h-164z" />
<glyph unicode="&#xa7;" d="M115 555q0 207 184 342q-96 121 -96 246t79.5 206t209.5 81q162 0 251 -82l-53 -140q-63 53 -158 54q-125 0 -124 -125q0 -90 102 -191l156 -153q157 -156 157 -344q0 -199 -196 -345q113 -115 112 -272q0 -121 -88 -207t-213 -86q-180 0 -268 82l55 160q63 -63 172 -64 q53 0 91 35t38 80q0 102 -80 182l-184 185q-147 147 -147 356zM281 590q0 -129 94 -225l149 -152q117 82 117 207q0 127 -92 221l-156 158q-113 -80 -112 -209z" />
<glyph unicode="&#xa8;" horiz-adv-x="368" d="M-76 1333q0 41 30 72t71 31t71.5 -31t30.5 -72t-30.5 -71.5t-71.5 -30.5t-71 30.5t-30 71.5zM244 1333q0 41 29.5 72t70.5 31q43 0 72.5 -31t29.5 -72t-29.5 -71.5t-72.5 -30.5q-41 0 -70.5 30.5t-29.5 71.5z" />
<glyph unicode="&#xa9;" horiz-adv-x="1650" d="M100 702q0 299 212 512t513 213q299 0 511 -213t212 -512t-212 -509.5t-511 -210.5q-301 0 -513 210.5t-212 509.5zM193 702q0 -262 185 -446t447 -184t447.5 185t185.5 445q0 262 -185.5 447.5t-447.5 185.5t-447 -185t-185 -448zM393 707q0 182 129 310t309 128 q197 0 330 -154l-86 -76q-98 115 -244 115q-133 0 -227 -95t-94 -228q0 -131 94 -225.5t227 -94.5q147 0 244 111l90 -72q-133 -154 -334 -154q-182 0 -310 127t-128 308z" />
<glyph unicode="&#xaa;" horiz-adv-x="620" d="M63 936q0 209 349 246v28q0 111 -119 111q-88 0 -158 -39l-33 88q98 49 215 49q240 0 240 -229v-408q-88 -51 -233 -51q-260 0 -261 205zM207 942q0 -121 125 -121q41 1 80 15v262q-109 -14 -152 -45q-53 -35 -53 -111z" />
<glyph unicode="&#xab;" horiz-adv-x="956" d="M102 684q188 307 273 434l108 -96l-207 -338l207 -336l-108 -98q-53 74 -273 434zM444 684q12 18 137.5 217t135.5 217l110 -96l-209 -338l209 -336l-110 -98q-127 197 -273 434z" />
<glyph unicode="&#xac;" d="M115 610v150h698v-486h-149v336h-549z" />
<glyph unicode="&#xad;" horiz-adv-x="692" d="M16 356l68 250h504l-68 -250h-504z" />
<glyph unicode="&#xae;" horiz-adv-x="1650" d="M100 702q0 299 212 512t513 213q299 0 511 -213t212 -512t-212 -509.5t-511 -210.5q-301 0 -513 210.5t-212 509.5zM193 702q0 -262 185 -446t447 -184t447.5 185t185.5 445q0 262 -185.5 447.5t-447.5 185.5t-447 -185t-185 -448zM586 289v827q84 43 209 43 q127 0 205.5 -66.5t78.5 -174.5q0 -100 -64.5 -163t-168.5 -73l297 -393h-129l-285 387h-35v-387h-108zM694 756h64q213 0 213 162q0 86 -68 126q-49 29 -119 29q-53 0 -90 -16v-301z" />
<glyph unicode="&#xaf;" horiz-adv-x="368" d="M-76 1278v137h520v-137h-520z" />
<glyph unicode="&#xb0;" horiz-adv-x="815" d="M98 1120q0 127 91.5 218.5t218.5 91.5t218 -91.5t91 -218.5t-91 -218t-218 -91t-218.5 91t-91.5 218zM233 1120q0 -72 51.5 -123t123.5 -51t123 51t51 123t-51.5 123t-122.5 51q-72 0 -123.5 -51t-51.5 -123z" />
<glyph unicode="&#xb1;" d="M115 127v149h698v-149h-698zM115 745v148h274v344h150v-344h274v-148h-274v-346h-150v346h-274z" />
<glyph unicode="&#xb2;" horiz-adv-x="645" d="M59 553l275 444q61 100 61 170q0 133 -137 133q-59 0 -121 -32l-43 102q86 53 203 53q121 0 188.5 -68.5t67.5 -172.5q0 -92 -94 -232l-178 -262h278v-135h-500z" />
<glyph unicode="&#xb3;" horiz-adv-x="645" d="M74 592l45 113q49 -39 143 -39q61 0 99 41t38 102q0 74 -52 117t-144 45v90q180 16 180 133q0 45 -33 75.5t-86 30.5q-61 0 -119 -32l-45 100q78 53 201 53q109 0 170 -59t61 -148q0 -117 -106 -176q131 -69 131 -225q0 -113 -78 -193.5t-190 -80.5q-137 0 -215 53z" />
<glyph unicode="&#xb4;" horiz-adv-x="368" d="M78 1223l100 272q53 39 127 39q70 0 80 -37l-203 -274h-104z" />
<glyph unicode="&#xb6;" d="M31 999q0 201 121 310q111 100 290 100h422v-113h-55v-1736h-125v1736h-227v-1736h-125v1054q-141 29 -221 127.5t-80 257.5z" />
<glyph unicode="&#xb7;" horiz-adv-x="458" d="M86 692q0 59 42 102.5t101 43.5t101.5 -43.5t42.5 -102.5t-42 -102t-102 -43q-59 0 -101 43t-42 102z" />
<glyph unicode="&#xb8;" horiz-adv-x="368" d="M-25 -373l37 76q29 -4 56 -4q78 0 129 21.5t51 52.5q0 63 -172 55l37 72q39 2 71 2q211 0 211 -125q0 -72 -85 -115t-220 -43q-55 0 -115 8z" />
<glyph unicode="&#xb9;" horiz-adv-x="645" d="M111 1278q188 25 245 131h111v-858h-156v672q-66 -25 -186 -35z" />
<glyph unicode="&#xba;" horiz-adv-x="643" d="M55 1079q0 154 67.5 249t199.5 95q133 0 202 -98q64 -92 64 -246t-64 -243q-70 -98 -202 -99q-133 0 -203 99q-63 90 -64 243zM205 1081q0 -240 117 -239q116 -1 116 239q0 246 -116 246q-117 0 -117 -246z" />
<glyph unicode="&#xbb;" horiz-adv-x="956" d="M131 348l207 336l-207 338l111 96q90 -139 270 -434q-180 -295 -270 -434zM473 348l209 336l-209 338l111 96q125 -198 272 -434q-125 -199 -272 -434z" />
<glyph unicode="&#xbc;" horiz-adv-x="1449" d="M72 1278q193 25 245 131h111v-858h-154v672q-70 -25 -186 -35zM393 29l576 1409l139 -58l-576 -1409zM881 178v103l299 577h139v-575h59v-105h-59v-178h-145v178h-293zM991 283h183v282q0 33 4 86h-4q-8 -27 -35 -84z" />
<glyph unicode="&#xbd;" horiz-adv-x="1449" d="M72 1278q193 25 245 131h111v-858h-154v672q-70 -25 -186 -35zM336 29l575 1409l140 -58l-578 -1409zM879 0l274 444q61 100 61 170q0 57 -36.5 95.5t-102.5 38.5q-61 0 -119 -33l-45 102q86 53 205 53q121 0 187.5 -68.5t66.5 -172.5q0 -94 -92 -232l-178 -264h278v-133 h-499z" />
<glyph unicode="&#xbe;" horiz-adv-x="1449" d="M72 592l47 113q49 -39 141 -39q61 0 100 41t39 102q0 74 -52 117t-144 45v90q178 16 178 133q0 45 -33 75.5t-86 30.5q-61 0 -117 -32l-45 100q78 53 199 53q109 0 170 -59t61 -148q0 -117 -106 -176q133 -71 133 -225q0 -113 -78 -193.5t-190 -80.5q-135 0 -217 53z M428 29l576 1409l139 -58l-576 -1409zM881 178v103l299 577h139v-575h59v-105h-59v-178h-145v178h-293zM991 283h183v282q0 33 4 86h-4q-8 -27 -35 -84z" />
<glyph unicode="&#xbf;" horiz-adv-x="802" d="M86 -121q0 121 86 217q63 74 158 115l16 285h170l21 -355q-96 -23 -158 -82q-68 -66 -68 -157q0 -76 41 -123q47 -53 135 -53q104 0 181 45l65 -150q-109 -80 -291 -80q-170 0 -263 90t-93 248zM287 844q0 59 42 102t101 43t102 -43t43 -102t-43 -102.5t-102 -43.5 t-101 43t-42 103z" />
<glyph unicode="&#xc0;" horiz-adv-x="1030" d="M18 0l398 1409h205l391 -1409h-236l-90 354h-371l-92 -354h-205zM252 1765l225 -274h82l-121 272q-53 39 -116 39q-60 0 -70 -37zM352 512h297l-102 434q-18 82 -41 189h-2q-8 -49 -41 -189z" />
<glyph unicode="&#xc1;" horiz-adv-x="1030" d="M18 0l398 1409h205l391 -1409h-236l-90 354h-371l-92 -354h-205zM352 512h297l-102 434q-18 82 -41 189h-2q-8 -49 -41 -189zM477 1491l121 272q53 39 117 39q59 0 69 -37l-225 -274h-82z" />
<glyph unicode="&#xc2;" horiz-adv-x="1030" d="M18 0l398 1409h205l391 -1409h-236l-90 354h-371l-92 -354h-205zM309 1458l152 213q23 33 55 33q33 0 55 -33l152 -213l-47 -55l-160 151l-158 -151zM352 512h297l-102 434q-18 82 -41 189h-2q-8 -49 -41 -189z" />
<glyph unicode="&#xc3;" horiz-adv-x="1030" d="M18 0l398 1409h205l391 -1409h-236l-90 354h-371l-92 -354h-205zM279 1585q45 96 131 105q49 4 103 -42t89 -42q74 8 111 80l24 -97q-43 -88 -137 -98q-43 -4 -99.5 41t-94.5 41q-66 -8 -107 -80zM352 512h297l-102 434q-18 82 -41 189h-2q-8 -49 -41 -189z" />
<glyph unicode="&#xc4;" horiz-adv-x="1030" d="M18 0l398 1409h205l391 -1409h-236l-90 354h-371l-92 -354h-205zM256 1620q0 43 29.5 72.5t70.5 29.5q43 0 73 -29.5t30 -72.5q0 -41 -30 -71.5t-73 -30.5q-41 0 -70.5 30.5t-29.5 71.5zM352 512h297l-102 434q-18 82 -41 189h-2q-8 -49 -41 -189zM578 1620 q0 43 29.5 72.5t70.5 29.5t70.5 -29.5t29.5 -72.5q0 -41 -29.5 -71.5t-70.5 -30.5t-70.5 30.5t-29.5 71.5z" />
<glyph unicode="&#xc5;" horiz-adv-x="1030" d="M18 0l398 1409h205l391 -1409h-236l-90 354h-371l-92 -354h-205zM350 1665q0 70 49.5 120t118.5 50q70 0 119 -50t49 -120t-49 -119t-119 -49t-119 49t-49 119zM352 512h297l-102 434q-18 82 -41 189h-2q-8 -49 -41 -189zM422 1665q0 -39 28.5 -66.5t67.5 -27.5 t67.5 27.5t28.5 66.5q0 41 -27.5 68.5t-68.5 27.5q-39 0 -67.5 -27.5t-28.5 -68.5z" />
<glyph unicode="&#xc6;" horiz-adv-x="1275" d="M-14 0l503 1409h639v-190h-405l86 -404h319v-186h-284l92 -439h311v-190h-504l-61 354h-369l-116 -354h-211zM362 510h297l-77 453q-12 76 -21 167h-6q-10 -45 -47 -165z" />
<glyph unicode="&#xc7;" horiz-adv-x="858" d="M98 705q0 303 115 503q127 221 346 222q160 0 252 -82l-49 -152q-68 47 -160 47q-139 0 -209 -170q-57 -141 -57 -368q0 -217 61 -361q72 -168 203 -168q100 0 162 49l51 -164q-78 -82 -258 -81q-221 0 -344 213q-113 197 -113 512zM291 -371l41 76q29 -4 55 -4 q74 0 125 21.5t51 52.5q0 63 -170 55l37 72q35 2 66 2q217 0 217 -125q0 -72 -85 -115t-220 -43q-57 0 -117 8z" />
<glyph unicode="&#xc8;" horiz-adv-x="800" d="M133 0v1409h590v-180h-358v-418h317v-176h-317v-455h358v-180h-590zM172 1765l225 -274h82l-121 272q-53 39 -116 39q-60 0 -70 -37z" />
<glyph unicode="&#xc9;" horiz-adv-x="800" d="M133 0v1409h590v-180h-358v-418h317v-176h-317v-455h358v-180h-590zM395 1491l121 272q53 39 117 39q59 0 69 -37l-225 -274h-82z" />
<glyph unicode="&#xca;" horiz-adv-x="800" d="M133 0v1409h590v-180h-358v-418h317v-176h-317v-455h358v-180h-590zM233 1505l152 213q23 33 55 33q33 0 56 -33l151 -213l-47 -55l-160 152l-159 -152z" />
<glyph unicode="&#xcb;" horiz-adv-x="804" d="M137 0v1409h590v-180h-358v-418h317v-178h-317v-453h358v-180h-590zM168 1620q0 43 29.5 72.5t70.5 29.5q43 0 73 -29.5t30 -72.5q0 -41 -30 -71.5t-73 -30.5q-41 0 -70.5 30.5t-29.5 71.5zM489 1620q0 43 30 72.5t71 29.5t70.5 -29.5t29.5 -72.5q0 -41 -29.5 -71.5 t-70.5 -30.5t-71 30.5t-30 71.5z" />
<glyph unicode="&#xcc;" horiz-adv-x="501" d="M-8 1765l225 -274h82l-121 272q-53 39 -117 39q-59 0 -69 -37zM137 0v1409h232v-1409h-232z" />
<glyph unicode="&#xcd;" horiz-adv-x="501" d="M137 0v1409h232v-1409h-232zM205 1491l121 272q53 39 116 39q60 0 70 -37l-225 -274h-82z" />
<glyph unicode="&#xce;" horiz-adv-x="503" d="M8 1550l178 213q27 33 66 33t65 -33l179 -213l-56 -55l-188 152l-186 -152zM137 0v1409h230v-1409h-230z" />
<glyph unicode="&#xcf;" horiz-adv-x="503" d="M-8 1620q0 43 29.5 72.5t70.5 29.5t72 -29.5t31 -72.5q0 -41 -31 -71.5t-72 -30.5t-70.5 30.5t-29.5 71.5zM135 0v1409h232v-1409h-232zM311 1620q0 43 30 72.5t71 29.5q43 0 72.5 -29.5t29.5 -72.5q0 -41 -29.5 -71.5t-72.5 -30.5q-41 0 -71 30.5t-30 71.5z" />
<glyph unicode="&#xd0;" horiz-adv-x="1110" d="M70 676v160h94v512q127 82 332 82q258 0 393 -201q125 -186 125 -514q0 -322 -113 -514q-131 -221 -393 -221q-231 0 -344 81v615h-94zM389 184q35 -18 111 -18q280 0 280 553q0 537 -286 536q-68 0 -105 -14v-405h172v-160h-172v-492z" />
<glyph unicode="&#xd1;" horiz-adv-x="1140" d="M133 0v1409h217l408 -844q29 -61 61 -135h4q-6 78 -6 141v838h195v-1409h-185l-446 922q-29 59 -55 131h-7q6 -70 7 -131v-922h-193zM295 1614q29 104 127 117q55 6 131 -39t115 -39q88 12 108 92l62 -113q-27 -94 -133 -110q-49 -8 -127 37t-121 38q-78 -10 -105 -90z " />
<glyph unicode="&#xd2;" horiz-adv-x="1105" d="M98 705q0 322 105 509q119 215 350 216q231 0 350 -216q105 -187 105 -509t-105 -512q-119 -213 -350 -213t-350 213q-104 190 -105 512zM287 1786l225 -275h82l-121 273q-53 39 -117 39q-59 0 -69 -37zM332 711q0 -535 221 -535q219 0 219 535q0 539 -219 538 q-221 0 -221 -538z" />
<glyph unicode="&#xd3;" horiz-adv-x="1105" d="M98 705q0 322 105 509q119 215 350 216q231 0 350 -216q105 -187 105 -509t-105 -512q-119 -213 -350 -213t-350 213q-104 190 -105 512zM332 711q0 -535 221 -535q219 0 219 535q0 539 -219 538q-221 0 -221 -538zM512 1511l121 273q53 39 117 39q59 0 69 -37l-225 -275 h-82z" />
<glyph unicode="&#xd4;" horiz-adv-x="1105" d="M98 705q0 322 105 509q119 215 350 216q231 0 350 -216q105 -187 105 -509t-105 -512q-119 -213 -350 -213t-350 213q-104 190 -105 512zM332 711q0 -535 221 -535q219 0 219 535q0 539 -219 538q-221 0 -221 -538zM346 1497l152 213q23 33 55 33q33 0 55 -33l152 -213 l-47 -55l-160 151l-158 -151z" />
<glyph unicode="&#xd5;" horiz-adv-x="1105" d="M98 705q0 322 105 509q119 215 350 216q231 0 350 -216q105 -187 105 -509t-105 -512q-119 -213 -350 -213t-350 213q-104 190 -105 512zM319 1585q45 96 132 105q49 4 103 -42t89 -42q74 8 111 80l24 -97q-43 -88 -137 -98q-43 -4 -99.5 41t-95.5 41q-66 -8 -106 -80z M332 711q0 -535 221 -535q219 0 219 535q0 539 -219 538q-221 0 -221 -538z" />
<glyph unicode="&#xd6;" horiz-adv-x="1105" d="M98 705q0 322 105 509q119 215 350 216q231 0 350 -216q105 -187 105 -509t-105 -512q-119 -213 -350 -213t-350 213q-104 190 -105 512zM293 1620q0 43 29.5 72.5t70.5 29.5t71 -29.5t30 -72.5q0 -41 -30 -71.5t-71 -30.5t-70.5 30.5t-29.5 71.5zM332 711 q0 -535 221 -535q219 0 219 535q0 539 -219 538q-221 0 -221 -538zM612 1620q0 43 30 72.5t71 29.5q43 0 72.5 -29.5t29.5 -72.5q0 -41 -29.5 -71.5t-72.5 -30.5q-41 0 -71 30.5t-30 71.5z" />
<glyph unicode="&#xd7;" d="M115 207v141h698v-141h-698zM115 471v162l551 201l-551 204v160l698 -293v-143z" />
<glyph unicode="&#xd8;" horiz-adv-x="1161" d="M102 705q0 313 115 509q127 215 363 216q168 0 288 -117l121 219l70 -39l-135 -246q135 -200 135 -542q0 -315 -115 -510q-129 -215 -364 -215q-168 0 -287 114l-121 -221l-68 39l134 248q-135 201 -136 545zM315 713q0 -190 50 -328l405 750q-68 141 -190 141 q-147 0 -213 -189q-51 -145 -52 -374zM395 279q70 -125 185 -125q264 0 264 559q0 176 -45 311z" />
<glyph unicode="&#xd9;" horiz-adv-x="1058" d="M133 401v1008h229v-1026q0 -94 48.5 -149.5t128.5 -55.5t128 55.5t48 149.5v1026h211v-1010q0 -195 -112 -308.5t-286 -113.5q-172 0 -280 111q-115 117 -115 313zM287 1683l225 -274h82l-121 272q-53 39 -117 39q-59 0 -69 -37z" />
<glyph unicode="&#xda;" horiz-adv-x="1058" d="M133 401v1008h229v-1026q0 -94 48.5 -149.5t128.5 -55.5t128 55.5t48 149.5v1026h211v-1010q0 -195 -112 -308.5t-286 -113.5q-172 0 -280 111q-115 117 -115 313zM512 1409l121 272q53 39 117 39q59 0 69 -37l-225 -274h-82z" />
<glyph unicode="&#xdb;" horiz-adv-x="1058" d="M133 401v1008h229v-1026q0 -94 48.5 -149.5t128.5 -55.5t128 55.5t48 149.5v1026h211v-1010q0 -195 -112 -308.5t-286 -113.5q-172 0 -280 111q-115 117 -115 313zM287 1550l178 213q27 33 65 33q39 0 66 -33l178 -213l-55 -55l-189 152l-186 -152z" />
<glyph unicode="&#xdc;" horiz-adv-x="1058" d="M133 401v1008h229v-1026q0 -94 48.5 -149.5t128.5 -55.5t128 55.5t48 149.5v1026h211v-1010q0 -195 -112 -308.5t-286 -113.5q-172 0 -280 111q-115 117 -115 313zM279 1620q0 43 29.5 72.5t70.5 29.5q43 0 72.5 -29.5t29.5 -72.5q0 -41 -29.5 -71.5t-72.5 -30.5 q-41 0 -70.5 30.5t-29.5 71.5zM598 1620q0 43 29.5 72.5t72.5 29.5q41 0 71 -29.5t30 -72.5q0 -41 -30 -71.5t-71 -30.5q-43 0 -72.5 30.5t-29.5 71.5z" />
<glyph unicode="&#xdd;" horiz-adv-x="894" d="M10 1409h244l203 -565h4l207 565h215l-322 -786v-623h-229v623zM430 1409l121 272q53 39 117 39q59 0 69 -37l-225 -274h-82z" />
<glyph unicode="&#xde;" horiz-adv-x="964" d="M133 0v1409h232v-240q55 18 108 19q213 0 324 -125q102 -114 102 -315q0 -205 -121 -320q-133 -125 -381 -109l-32 3v-322h-232zM365 483l32 -2q143 -8 213 72q60 69 60 186q0 133 -55.5 212t-155.5 79q-53 0 -94 -12v-535z" />
<glyph unicode="&#xdf;" horiz-adv-x="999" d="M123 0v1059q0 260 98 414.5t279 154.5q172 0 270 -139q90 -131 90 -340q0 -119 -22 -186q-164 -27 -164 -170q0 -78 117 -199q76 -78 105.5 -141.5t29.5 -153.5q0 -137 -89 -225t-227 -88q-129 0 -186 57l41 160q37 -33 115 -33q57 0 93 37t36 100q0 55 -21.5 95 t-85.5 108q-131 139 -131 264q0 176 164 244q12 53 12 127q0 313 -147 313q-158 0 -158 -383v-1075h-219z" />
<glyph unicode="&#xe0;" horiz-adv-x="911" d="M78 319q0 199 147 299q117 82 359 111v47q0 184 -174 185q-125 0 -228 -64l-47 145q127 82 311 82q346 0 347 -383v-680q-121 -82 -338 -81q-186 0 -281.5 90t-95.5 249zM180 1501l226 -274h81l-120 272q-53 39 -117 39q-60 0 -70 -37zM283 326q0 -197 184 -197 q74 0 117 25v442q-158 -25 -224 -78q-78 -63 -77 -192z" />
<glyph unicode="&#xe1;" horiz-adv-x="911" d="M78 319q0 199 147 299q117 82 359 111v47q0 184 -174 185q-125 0 -228 -64l-47 145q127 82 311 82q346 0 347 -383v-680q-121 -82 -338 -81q-186 0 -281.5 90t-95.5 249zM283 326q0 -197 184 -197q74 0 117 25v442q-158 -25 -224 -78q-78 -63 -77 -192zM406 1227l120 272 q53 39 117 39q60 0 70 -37l-226 -274h-81z" />
<glyph unicode="&#xe2;" horiz-adv-x="911" d="M78 319q0 199 147 299q117 82 359 111v47q0 184 -174 185q-125 0 -228 -64l-47 145q127 82 311 82q346 0 347 -383v-680q-121 -82 -338 -81q-186 0 -281.5 90t-95.5 249zM240 1212l151 213q23 33 55 33q33 0 56 -33l151 -213l-47 -55l-160 152l-157 -152zM283 326 q0 -197 184 -197q74 0 117 25v442q-158 -25 -224 -78q-78 -63 -77 -192z" />
<glyph unicode="&#xe3;" horiz-adv-x="911" d="M78 319q0 199 147 299q117 82 359 111v47q0 184 -174 185q-125 0 -228 -64l-47 145q127 82 311 82q346 0 347 -383v-680q-121 -82 -338 -81q-186 0 -281.5 90t-95.5 249zM209 1319q45 96 131 104q49 4 103.5 -42t88.5 -42q74 8 111 80l25 -96q-43 -88 -138 -98 q-43 -4 -99 41t-95 41q-66 -8 -107 -80zM283 326q0 -197 184 -197q74 0 117 25v442q-158 -25 -224 -78q-78 -63 -77 -192z" />
<glyph unicode="&#xe4;" horiz-adv-x="911" d="M78 319q0 199 147 299q117 82 359 111v47q0 184 -174 185q-125 0 -228 -64l-47 145q127 82 311 82q346 0 347 -383v-680q-121 -82 -338 -81q-186 0 -281.5 90t-95.5 249zM207 1333q0 41 29.5 72t72.5 31q41 0 71 -31t30 -72t-30 -71.5t-71 -30.5q-43 0 -72.5 30.5 t-29.5 71.5zM283 326q0 -197 184 -197q74 0 117 25v442q-158 -25 -224 -78q-78 -63 -77 -192zM528 1333q0 43 29 73t72 30q41 0 70.5 -31t29.5 -72t-29.5 -71.5t-70.5 -30.5q-43 0 -72 29.5t-29 72.5z" />
<glyph unicode="&#xe5;" horiz-adv-x="911" d="M78 319q0 199 147 299q117 82 359 111v47q0 184 -174 185q-125 0 -228 -64l-47 145q127 82 311 82q346 0 347 -383v-680q-121 -82 -338 -81q-186 0 -281.5 90t-95.5 249zM283 326q0 -197 184 -197q74 0 117 25v442q-158 -25 -224 -78q-78 -63 -77 -192zM303 1384 q0 72 49 121t119 49t119 -50t49 -120t-49 -118.5t-119 -48.5t-119 49t-49 118zM375 1384q0 -39 28.5 -66.5t67.5 -27.5t66.5 27.5t27.5 66.5q0 41 -27.5 69t-66.5 28t-67.5 -28t-28.5 -69z" />
<glyph unicode="&#xe6;" horiz-adv-x="1423" d="M80 322q0 195 131 292q117 86 375 117v47q0 182 -180 183q-111 0 -222 -64l-45 145q121 82 299 82q195 0 264 -153q90 154 269 153q184 0 279 -154.5t85 -443.5l-547 -67q20 -305 240 -305q143 0 229 63l52 -156q-109 -82 -305 -81q-94 0 -177.5 47t-119.5 120 q-72 -168 -275 -167q-170 0 -261 91t-91 251zM283 330q0 -195 159 -195q61 0 102.5 46t41.5 124v289q-164 -18 -233.5 -77.5t-69.5 -186.5zM776 600l346 43q0 324 -164 324q-84 0 -134 -101.5t-48 -265.5z" />
<glyph unicode="&#xe7;" horiz-adv-x="735" d="M88 555q0 268 109 424q100 145 264 145q150 0 225 -82l-45 -139q-51 51 -133 51q-197 0 -197 -395q0 -184 51.5 -290.5t143.5 -106.5q86 0 133 51l47 -152q-68 -82 -227 -81q-170 0 -270.5 150.5t-100.5 424.5zM184 -371l41 78q31 -4 62 -4q72 0 121 20.5t49 51.5 q0 63 -170 55l37 72q39 2 71 2q211 0 211 -125q0 -72 -85 -115t-220 -43q-57 0 -117 8z" />
<glyph unicode="&#xe8;" horiz-adv-x="950" d="M88 555q0 260 108.5 414.5t290.5 154.5q193 0 290 -154.5t87 -443.5l-561 -67q23 -303 244 -303q147 0 231 63l51 -158q-111 -82 -307 -81q-205 0 -319.5 148t-114.5 427zM221 1501l225 -274h82l-120 272q-53 39 -117 39q-60 0 -70 -37zM293 602l354 45q-4 315 -166 316 q-84 0 -137 -98.5t-51 -262.5z" />
<glyph unicode="&#xe9;" horiz-adv-x="950" d="M88 555q0 260 108.5 414.5t290.5 154.5q193 0 290 -154.5t87 -443.5l-561 -67q23 -303 244 -303q147 0 231 63l51 -158q-111 -82 -307 -81q-205 0 -319.5 148t-114.5 427zM293 602l354 45q-4 315 -166 316q-84 0 -137 -98.5t-51 -262.5zM446 1227l121 272q53 39 117 39 q60 0 70 -37l-226 -274h-82z" />
<glyph unicode="&#xea;" horiz-adv-x="950" d="M88 555q0 260 108.5 414.5t290.5 154.5q193 0 290 -154.5t87 -443.5l-561 -67q23 -303 244 -303q147 0 231 63l51 -158q-111 -82 -307 -81q-205 0 -319.5 148t-114.5 427zM281 1192l151 213q23 33 55 33q33 0 56 -33l151 -213l-47 -55l-160 151l-157 -151zM293 602 l354 45q-4 315 -166 316q-84 0 -137 -98.5t-51 -262.5z" />
<glyph unicode="&#xeb;" horiz-adv-x="950" d="M88 555q0 260 108.5 414.5t290.5 154.5q193 0 290 -154.5t87 -443.5l-561 -67q23 -303 244 -303q147 0 231 63l51 -158q-111 -82 -307 -81q-205 0 -319.5 148t-114.5 427zM231 1333q0 43 29 73t72 30q41 0 70.5 -31t29.5 -72t-29.5 -71.5t-70.5 -30.5q-43 0 -72 29.5 t-29 72.5zM293 602l354 45q-4 315 -166 316q-84 0 -137 -98.5t-51 -262.5zM551 1333q0 41 29.5 72t70.5 31t71 -31t30 -72t-30 -71.5t-71 -30.5t-70.5 30.5t-29.5 71.5z" />
<glyph unicode="&#xec;" horiz-adv-x="466" d="M-29 1481l226 -275h82l-121 273q-53 39 -117 39q-60 0 -70 -37zM123 0v1104h219v-1104h-219z" />
<glyph unicode="&#xed;" horiz-adv-x="466" d="M123 0v1104h219v-1104h-219zM195 1208l120 273q53 39 117 39q60 0 70 -37l-226 -275h-81z" />
<glyph unicode="&#xee;" horiz-adv-x="468" d="M-8 1264l178 213q27 33 66 32q39 0 65 -32l176 -213l-55 -56l-186 152l-189 -152zM125 0v1104h217v-1104h-217z" />
<glyph unicode="&#xef;" horiz-adv-x="489" d="M-16 1333q0 41 29.5 72t70.5 31t71.5 -31t30.5 -72t-30.5 -71.5t-71.5 -30.5t-70.5 30.5t-29.5 71.5zM131 0v1104h217v-1104h-217zM303 1333q0 41 31 72t72 31t70.5 -31t29.5 -72t-30 -71.5t-70 -30.5q-41 0 -72 30.5t-31 71.5z" />
<glyph unicode="&#xf0;" horiz-adv-x="944" d="M84 549q0 240 86 393q98 174 281 174q59 0 98 -12q-47 141 -100 239l-156 -57q-25 55 -55 96l151 56q-37 61 -86 123l186 69q51 -63 84 -119l138 52q31 -41 57 -95l-137 -53q223 -413 223 -862q0 -266 -92 -416q-96 -160 -277 -160q-186 0 -293.5 151t-107.5 421z M307 553q0 -401 172 -401q160 -1 160 407q0 215 -53 395q-49 14 -99 15q-100 0 -143 -113q-37 -98 -37 -303z" />
<glyph unicode="&#xf1;" horiz-adv-x="966" d="M117 0v1036q141 88 372 88q358 0 359 -336v-788h-217v788q0 174 -158 175q-78 0 -137 -25v-938h-219zM203 1325q27 104 127 117q55 6 131 -38t117 -38q84 12 108 90l62 -113q-29 -94 -134 -110q-49 -8 -126.5 37t-120.5 39q-78 -10 -105 -90z" />
<glyph unicode="&#xf2;" horiz-adv-x="950" d="M88 551q0 256 94 410q102 164 293 163q193 0 295 -163q92 -152 92 -410q0 -254 -94 -406q-100 -166 -291 -165q-193 0 -295 165q-94 152 -94 406zM209 1501l225 -274h82l-121 272q-53 39 -116 39q-60 0 -70 -37zM307 555q0 -399 170 -399q166 0 166 399q0 410 -166 410 q-170 0 -170 -410z" />
<glyph unicode="&#xf3;" horiz-adv-x="950" d="M88 551q0 256 94 410q102 164 293 163q193 0 295 -163q92 -152 92 -410q0 -254 -94 -406q-100 -166 -291 -165q-193 0 -295 165q-94 152 -94 406zM307 555q0 -399 170 -399q166 0 166 399q0 410 -166 410q-170 0 -170 -410zM434 1227l121 272q53 39 117 39q59 0 69 -37 l-225 -274h-82z" />
<glyph unicode="&#xf4;" horiz-adv-x="950" d="M88 551q0 256 94 410q102 164 293 163q193 0 295 -163q92 -152 92 -410q0 -254 -94 -406q-100 -166 -291 -165q-193 0 -295 165q-94 152 -94 406zM268 1192l152 213q23 33 55 33q33 0 55 -33l152 -213l-47 -55l-160 151l-158 -151zM307 555q0 -399 170 -399 q166 0 166 399q0 410 -166 410q-170 0 -170 -410z" />
<glyph unicode="&#xf5;" horiz-adv-x="950" d="M88 551q0 256 94 410q102 164 293 163q193 0 295 -163q92 -152 92 -410q0 -254 -94 -406q-100 -166 -291 -165q-193 0 -295 165q-94 152 -94 406zM229 1319q45 96 131 104q49 4 103.5 -42t89.5 -42q74 8 111 80l24 -96q-43 -88 -137 -98q-43 -4 -99.5 41t-95.5 41 q-66 -8 -106 -80zM307 555q0 -399 170 -399q166 0 166 399q0 410 -166 410q-170 0 -170 -410z" />
<glyph unicode="&#xf6;" horiz-adv-x="950" d="M88 551q0 256 94 410q102 164 293 163q193 0 295 -163q92 -152 92 -410q0 -254 -94 -406q-100 -166 -291 -165q-193 0 -295 165q-94 152 -94 406zM215 1335q0 41 29.5 72t70.5 31t72 -31t31 -72t-31 -71.5t-72 -30.5t-70.5 30.5t-29.5 71.5zM307 555q0 -399 170 -399 q166 0 166 399q0 410 -166 410q-170 0 -170 -410zM537 1335q0 41 28.5 72t69.5 31q43 0 72.5 -31t29.5 -72t-29.5 -71.5t-72.5 -30.5q-41 0 -69.5 30.5t-28.5 71.5z" />
<glyph unicode="&#xf7;" d="M115 627v114h698v-114h-698zM344 999q0 51 36 86t85 35t84 -35t35 -84q0 -51 -35 -85.5t-84 -34.5t-85 34.5t-36 83.5zM346 371q0 49 35 83.5t84 34.5t85 -34.5t36 -83.5q0 -51 -36 -86t-85 -35t-84 34.5t-35 86.5z" />
<glyph unicode="&#xf8;" horiz-adv-x="960" d="M92 551q0 256 94 410q102 164 293 163q133 0 230 -84l106 197l51 -29l-116 -213q116 -153 116 -444q0 -252 -92 -404q-102 -168 -295 -167q-137 0 -229 88l-107 -197l-49 29l113 213q-115 156 -115 438zM285 555q0 -154 34 -250l302 586q-57 94 -142 94q-195 0 -194 -430 zM342 227q55 -90 137 -90q195 0 195 418q0 172 -31 260z" />
<glyph unicode="&#xf9;" horiz-adv-x="958" d="M117 352v752h221v-776q0 -178 151 -178q70 0 132 34v920h219v-1036q-127 -90 -359 -91q-365 0 -364 375zM209 1399l225 -275h82l-121 273q-53 39 -116 39q-60 0 -70 -37z" />
<glyph unicode="&#xfa;" horiz-adv-x="958" d="M117 352v752h221v-776q0 -178 151 -178q70 0 132 34v920h219v-1036q-127 -90 -359 -91q-365 0 -364 375zM434 1124l121 273q53 39 117 39q59 0 69 -37l-225 -275h-82z" />
<glyph unicode="&#xfb;" horiz-adv-x="958" d="M117 352v752h221v-776q0 -178 151 -178q70 0 132 34v920h219v-1036q-127 -90 -359 -91q-365 0 -364 375zM236 1264l178 213q27 33 65 32q39 0 66 -32l178 -213l-55 -56l-187 152l-188 -152z" />
<glyph unicode="&#xfc;" horiz-adv-x="958" d="M117 352v752h221v-776q0 -178 151 -178q70 0 132 34v920h219v-1036q-127 -90 -359 -91q-365 0 -364 375zM219 1333q0 41 30 72t70 31q41 0 72 -31t31 -72t-31 -71.5t-72 -30.5t-70.5 30.5t-29.5 71.5zM539 1333q0 41 29.5 72t70.5 31q43 0 72.5 -31t29.5 -72t-29.5 -71.5 t-72.5 -30.5q-41 0 -70.5 30.5t-29.5 71.5z" />
<glyph unicode="&#xfd;" horiz-adv-x="892" d="M47 1104h225l170 -813h7l194 813h203l-436 -1544h-222l158 440zM434 1104l121 272q53 39 117 39q59 0 69 -37l-225 -274h-82z" />
<glyph unicode="&#xfe;" horiz-adv-x="952" d="M115 -440v2048h215v-527q61 37 155 37q178 0 279.5 -146.5t101.5 -410.5q0 -266 -111.5 -419.5t-293.5 -153.5q-74 0 -129 18v-446h-217zM332 156q68 -12 82 -13q233 0 233 410t-211 410q-61 0 -104 -27v-780z" />
<glyph unicode="&#xff;" horiz-adv-x="897" d="M51 1104h225l170 -813h7l194 813h203l-436 -1544h-221l157 440zM199 1331q0 43 29.5 73t70.5 30t70.5 -30t29.5 -73q0 -41 -29.5 -70.5t-70.5 -29.5t-70.5 29.5t-29.5 70.5zM518 1331q0 43 30 73t70 30q43 0 73 -30t30 -73q0 -41 -29.5 -70.5t-73.5 -29.5 q-41 0 -70.5 29.5t-29.5 70.5z" />
<glyph unicode="&#x152;" horiz-adv-x="1376" d="M98 705q0 317 117 509q129 215 371 216q94 0 153 -21h557v-190h-356v-404h317v-186h-317v-439h356v-190h-559q-53 -20 -149 -20q-242 0 -373 215q-117 193 -117 510zM334 711q0 -219 51 -357q66 -180 209 -180q80 1 121 21v1024q-45 31 -121 30q-143 0 -209 -182 q-51 -139 -51 -356z" />
<glyph unicode="&#x153;" horiz-adv-x="1480" d="M88 551q0 254 94 407q100 166 283 166q195 0 280 -186q94 186 287 186q379 0 363 -598l-547 -67q25 -307 244 -307q150 0 237 61l45 -152q-106 -82 -307 -81q-219 0 -319 196q-86 -197 -279 -196q-186 0 -287 163q-94 154 -94 408zM307 555q0 -403 170 -403t170 403 q0 408 -170 408t-170 -408zM836 604l348 43q4 324 -168 324q-82 0 -131 -100.5t-49 -266.5z" />
<glyph unicode="&#x178;" horiz-adv-x="892" d="M10 1409h244l203 -565h4l207 565h215l-322 -786v-623h-229v623zM197 1620q0 43 29.5 72.5t70.5 29.5t70.5 -29.5t29.5 -72.5q0 -41 -29.5 -71.5t-70.5 -30.5t-70.5 30.5t-29.5 71.5zM516 1620q0 43 29.5 72.5t70.5 29.5q43 0 73 -29.5t30 -72.5q0 -41 -30 -71.5 t-73 -30.5q-41 0 -70.5 30.5t-29.5 71.5z" />
<glyph unicode="&#x2c6;" horiz-adv-x="368" d="M-59 1264l178 213q27 33 65 32q39 0 66 -32l178 -213l-55 -56l-189 152l-186 -152z" />
<glyph unicode="&#x2dc;" horiz-adv-x="368" d="M-86 1325q27 104 127 117q55 6 131 -38t115 -38q84 12 108 90l62 -113q-27 -94 -133 -110q-49 -8 -127 37t-121 39q-78 -10 -105 -90z" />
<glyph unicode="&#x2000;" horiz-adv-x="917" />
<glyph unicode="&#x2001;" horiz-adv-x="1835" />
<glyph unicode="&#x2002;" horiz-adv-x="917" />
<glyph unicode="&#x2003;" horiz-adv-x="1835" />
<glyph unicode="&#x2004;" horiz-adv-x="611" />
<glyph unicode="&#x2005;" horiz-adv-x="458" />
<glyph unicode="&#x2006;" horiz-adv-x="305" />
<glyph unicode="&#x2007;" horiz-adv-x="305" />
<glyph unicode="&#x2008;" horiz-adv-x="229" />
<glyph unicode="&#x2009;" horiz-adv-x="367" />
<glyph unicode="&#x200a;" horiz-adv-x="101" />
<glyph unicode="&#x2010;" horiz-adv-x="612" d="M92 586v196h428v-196h-428z" />
<glyph unicode="&#x2011;" horiz-adv-x="612" d="M92 586v196h428v-196h-428z" />
<glyph unicode="&#x2012;" horiz-adv-x="612" d="M92 586v196h428v-196h-428z" />
<glyph unicode="&#x2013;" horiz-adv-x="698" d="M0 610v150h698v-150h-698z" />
<glyph unicode="&#x2014;" horiz-adv-x="1396" d="M0 623v125h1397v-125h-1397z" />
<glyph unicode="&#x2018;" horiz-adv-x="548" d="M78 1069l264 539h137l-153 -537q-47 -82 -144 -82q-94 0 -104 80z" />
<glyph unicode="&#x2019;" horiz-adv-x="548" d="M70 1001l151 537q49 82 146 82q94 0 104 -80l-266 -539h-135z" />
<glyph unicode="&#x201a;" horiz-adv-x="548" d="M70 -344l151 537q49 82 146 81q94 1 104 -79l-266 -539h-135z" />
<glyph unicode="&#x201c;" horiz-adv-x="1026" d="M127 1069l264 539h137l-153 -537q-47 -82 -144 -82q-94 0 -104 80zM506 1069l264 539h137l-153 -537q-47 -82 -144 -82q-94 0 -104 80z" />
<glyph unicode="&#x201d;" horiz-adv-x="1026" d="M119 999l151 539q49 80 146 80q94 0 104 -78l-266 -541h-135zM498 999l151 539q49 80 146 80q94 0 104 -78l-266 -541h-135z" />
<glyph unicode="&#x201e;" horiz-adv-x="1026" d="M119 -344l151 537q49 82 146 81q94 1 104 -79l-266 -539h-135zM498 -344l151 537q49 82 146 81q94 1 104 -79l-266 -539h-135z" />
<glyph unicode="&#x2022;" horiz-adv-x="745" d="M119 725q0 106 73.5 180t180.5 74q104 0 179 -74t75 -180t-75 -180t-179 -74q-106 0 -180 73.5t-74 180.5z" />
<glyph unicode="&#x2026;" horiz-adv-x="1757" d="M150 127q0 61 41.5 104t101.5 43q59 0 101 -43t42 -104q0 -59 -42 -101t-101 -42t-101 42t-42 101zM735 127q0 61 42 104t102 43q59 0 101 -43t42 -104q0 -59 -42 -101t-101 -42t-101.5 42t-42.5 101zM1321 127q0 61 42 104t101 43t101.5 -43t42.5 -104q0 -59 -42 -101 t-102 -42q-59 0 -101 42t-42 101z" />
<glyph unicode="&#x202f;" horiz-adv-x="367" />
<glyph unicode="&#x2039;" horiz-adv-x="540" d="M66 684q188 307 272 434l108 -96l-206 -338l206 -336l-108 -98q-53 74 -272 434z" />
<glyph unicode="&#x203a;" horiz-adv-x="540" d="M94 348l207 336l-207 338l111 96q90 -139 270 -434q-180 -295 -270 -434z" />
<glyph unicode="&#x205f;" horiz-adv-x="458" />
<glyph unicode="&#x2122;" horiz-adv-x="1378" d="M82 1317v92h432v-92h-162v-590h-104v590h-166zM545 727l80 682h141l135 -551l131 551h144l79 -682h-102l-59 576l-146 -576h-98l-148 573l-55 -573h-102z" />
<glyph unicode="&#x25fc;" horiz-adv-x="1105" d="M0 0v1106h1106v-1106h-1106z" />
</font>
</defs>
</svg>
