<?xml version="1.0" encoding="UTF-8"?>
<svg width="93px" height="25px" viewBox="0 0 93 25" version="1.1" xmlns="http://www.w3.org/2000/svg" xmlns:xlink="http://www.w3.org/1999/xlink">
    <!-- Generator: sketchtool 42 (36781) - http://www.bohemiancoding.com/sketch -->
    <title>B6E528A3-0FC9-4AD6-BA08-DF7576CDD362</title>
    <desc>Created with sketchtool.</desc>
    <defs></defs>
    <g id="Symbols" stroke="none" stroke-width="1" fill="none" fill-rule="evenodd">
        <g id="G-Lab-logo-white" fill="#FFFFFF">
            <path d="M0,25 L92.0908,25 L92.0908,0 L0,0 L0,25 Z M30.7591,17.9472 L31.7793,17.9472 L31.7793,7.0529 L30.7591,7.0529 L30.7591,17.9472 Z M15.6382,15.51 L13.5978,15.51 C12.4318,15.51 11.3023,14.4534 11.3023,13.3239 L11.3023,12.4494 C11.193,10.7005 11.9217,9.7167 13.2334,9.571 L17.3142,9.4981 L18.5895,7.0569 L12.4683,7.1298 C10.1364,7.2026 8.5697,8.8058 8.5332,11.4292 L8.5332,13.6153 C8.6061,15.9472 9.8813,17.6597 12.0311,17.8783 C13.5978,18.0241 18.298,17.8783 18.298,17.8783 L18.298,11.3199 L12.942,11.3199 L12.942,13.6153 L15.6382,13.6153 L15.6382,15.51 Z M80.8947,7.1439 L73.644,7.1075 L73.644,17.8925 L81.6963,17.8925 C83.9189,17.1638 84.3561,13.7024 81.8785,12.5364 C83.9918,11.7348 83.9918,8.8929 82.5343,7.654 C82.0971,7.3261 81.5141,7.1439 80.8947,7.1439 Z M45.3334,7.1257 L45.3334,17.8743 L51.3817,17.8743 L52.5477,15.7974 L47.9203,15.7246 L47.9203,7.1257 L45.3334,7.1257 Z M68.6887,17.8743 L64.7901,7.1257 L61.2194,7.1257 L57.175,17.8743 L59.9806,17.8743 L63.1141,9.6762 L65.3366,16.0161 L62.7133,16.0161 L62.7133,17.8743 L68.6887,17.8743 Z M77.4698,13.7388 L79.7288,13.7388 C81.4777,13.7388 81.0769,15.597 79.9838,15.6699 L76.2309,15.6699 L76.2309,11.7713 L77.4698,13.7388 Z M79.5102,9.403 C81.4413,9.3665 81.2955,11.2976 79.583,11.2976 L76.1945,11.3341 L76.1945,9.403 L79.5102,9.403 Z" id="Page-1"></path>
        </g>
    </g>
</svg>