<?xml version="1.0" encoding="UTF-8"?>
<svg width="111px" height="16px" viewBox="0 0 111 16" version="1.1" xmlns="http://www.w3.org/2000/svg" xmlns:xlink="http://www.w3.org/1999/xlink">
    <!-- Generator: sketchtool 42 (36781) - http://www.bohemiancoding.com/sketch -->
    <title>5FEBB5E4-37D4-43BF-BA31-EAD5CC2EBBF2</title>
    <desc>Created with sketchtool.</desc>
    <defs></defs>
    <g id="Symbols" stroke="none" stroke-width="1" fill="none" fill-rule="evenodd">
        <g id="GLAB-LOGO" fill="#3F3F3F">
            <path d="M32.6,16 L34.0857,16 L34.0857,0.0143 L32.6,0.0143 L32.6,16 Z M14.4,6.2571 L14.4,15.8857 C14.4,15.8857 7.4714,16.1286 5.1857,15.9 C2,15.5857 0.1429,13.0429 0.0286,9.6286 C0,8.8286 0,7.2143 0,6.4143 C0.0286,2.5571 2.3429,0.2 5.7857,0.1286 L14.7429,0.0143 L12.9,3.5571 L6.8571,3.7 C4.9714,3.8857 3.9,5.3286 3.9857,7.9 L4.0143,9.1857 C4.0143,10.8857 5.6571,12.4428 7.3857,12.4143 L10.4,12.4143 L10.4,9.6429 L6.4429,9.6429 L6.4429,6.2571 L14.4,6.2571 Z M106.171,0.0429 L95.5429,0.0143 L95.5571,15.8571 L107.386,15.8286 C110.629,14.7571 111.3,9.7 107.657,7.9857 C110.757,6.8143 110.743,2.6429 108.6,0.8286 C107.971,0.3143 107.086,0.0714 106.171,0.0429 Z M62.8857,15.8429 L53.9857,15.8429 L53.9857,0.0571 L57.7857,0.0429 L57.7857,12.6857 L64.5857,12.7571 L62.8857,15.8429 Z M75.5,15.8 L71.3857,15.8 L77.3,3.55271368e-15 L82.5571,0.0143 L88.2857,15.7857 L79.4857,15.8 L79.5,13.0429 L83.3857,13.0429 L80.0714,3.7571 L75.5,15.8 Z M99.3571,6.8571 L99.3571,12.5857 L104.857,12.5857 C106.486,12.4714 107.057,9.7714 104.471,9.7429 L101.157,9.7429 L99.3571,6.8571 Z M99.3143,3.3857 L99.3143,6.2286 L104.286,6.2 C106.786,6.1857 107.029,3.3571 104.186,3.4143 L99.3143,3.3857 Z" id="Page-1"></path>
        </g>
    </g>
</svg>