<?xml version="1.0" encoding="UTF-8"?>
<svg width="111px" height="30px" viewBox="0 0 111 30" version="1.1" xmlns="http://www.w3.org/2000/svg" xmlns:xlink="http://www.w3.org/1999/xlink">
    <!-- Generator: sketchtool 42 (36781) - http://www.bohemiancoding.com/sketch -->
    <title>4C9EA32F-758F-4CDD-88D9-D21BAA4F06B8</title>
    <desc>Created with sketchtool.</desc>
    <defs></defs>
    <g id="Symbols" stroke="none" stroke-width="1" fill="none" fill-rule="evenodd">
        <g id="LOGO-GLAB" fill="#262626">
            <path d="M0,30 L110.50896,30 L110.50896,0 L0,0 L0,30 Z M36.91092,21.53664 L38.13516,21.53664 L38.13516,8.46348 L36.91092,8.46348 L36.91092,21.53664 Z M18.76584,18.612 L16.31736,18.612 C14.91816,18.612 13.56276,17.34408 13.56276,15.98868 L13.56276,14.93928 C13.4316,12.8406 14.30604,11.66004 15.88008,11.4852 L20.77704,11.39772 L22.3074,8.46828 L14.96196,8.55576 C12.16368,8.64312 10.28364,10.56696 10.23984,13.71504 L10.23984,16.33836 C10.32732,19.13664 11.85756,21.19164 14.43732,21.45396 C16.31736,21.62892 21.9576,21.45396 21.9576,21.45396 L21.9576,13.58388 L15.5304,13.58388 L15.5304,16.33836 L18.76584,16.33836 L18.76584,18.612 Z M97.07364,8.57268 L88.3728,8.529 L88.3728,21.471 L98.03556,21.471 C100.70268,20.59656 101.22732,16.44288 98.2542,15.04368 C100.79016,14.08176 100.79016,10.67148 99.04116,9.1848 C98.51652,8.79132 97.81692,8.57268 97.07364,8.57268 Z M54.40008,8.55084 L54.40008,21.44916 L61.65804,21.44916 L63.05724,18.95688 L57.50436,18.86952 L57.50436,8.55084 L54.40008,8.55084 Z M82.42644,21.44916 L77.74812,8.55084 L73.46328,8.55084 L68.61,21.44916 L71.97672,21.44916 L75.73692,11.61144 L78.40392,19.21932 L75.25596,19.21932 L75.25596,21.44916 L82.42644,21.44916 Z M92.96376,16.48656 L95.67456,16.48656 C97.77324,16.48656 97.29228,18.7164 95.98056,18.80388 L91.47708,18.80388 L91.47708,14.12556 L92.96376,16.48656 Z M95.41224,11.2836 C97.72956,11.2398 97.5546,13.55712 95.4996,13.55712 L91.4334,13.60092 L91.4334,11.2836 L95.41224,11.2836 Z" id="Page-1"></path>
        </g>
    </g>
</svg>